<svg width="151" height="105" viewBox="0 0 151 105" fill="none" xmlns="http://www.w3.org/2000/svg">
<path d="M30.4048 100.921C30.4048 98.8141 55.1607 97.106 85.6981 97.106C116.236 97.106 140.991 98.8141 140.991 100.921C140.991 103.027 116.236 104.736 85.6981 104.736C55.1607 104.736 30.4048 103.027 30.4048 100.921Z" fill="#BDD1F9"/>
<path d="M39.8924 76.2925C39.9061 76.2881 39.9199 76.2831 39.933 76.2758C40.0396 76.2184 40.0795 76.0856 40.0222 75.9789C25.0207 48.0991 12.6112 28.789 5.07892 21.6051C4.91139 21.4454 4.79099 21.3307 4.74168 21.2697C4.6648 21.1761 4.52701 21.1623 4.43345 21.2385C4.3399 21.3155 4.3254 21.4534 4.40227 21.547C4.46899 21.6291 4.58503 21.7394 4.77721 21.9223C12.2769 29.0751 24.6573 48.3466 39.6371 76.1865C39.6864 76.2801 39.7944 76.3223 39.8924 76.2925Z" fill="#BDD1F9"/>
<path d="M0.707989 20.9082C1.58987 21.7067 5.41183 22.7216 5.63955 22.4697C5.86727 22.2178 4.4799 18.5119 3.59802 17.7126C2.71614 16.9141 1.35489 16.9816 0.557136 17.8643C-0.241342 18.7471 -0.173165 20.1097 0.707989 20.9082Z" fill="#BDD1F9"/>
<path d="M7.99145 22.3935C7.88266 23.6065 9.40783 27.3567 9.75376 27.388C10.0997 27.4192 12.2703 24.0022 12.3791 22.7891C12.4879 21.5761 11.5944 20.5046 10.3825 20.3957C9.17067 20.2861 8.10023 21.1811 7.99145 22.3935Z" fill="#BDD1F9"/>
<path d="M5.25003 30.0609C6.45537 29.8939 9.76173 27.5614 9.71459 27.2173C9.66672 26.8732 5.85197 25.5259 4.64735 25.6928C3.44201 25.8598 2.60074 26.9727 2.76682 28.1785C2.93289 29.385 4.04541 30.2278 5.25003 30.0609Z" fill="#BDD1F9"/>
<path d="M22.2111 39.9954C21.8101 41.9997 23.6783 48.5339 24.2498 48.6486C24.8213 48.7633 29.061 43.4538 29.462 41.4502C29.8631 39.4458 28.5657 37.496 26.5633 37.0945C24.5609 36.6923 22.6122 37.991 22.2111 39.9954Z" fill="#BDD1F9"/>
<path d="M16.2511 52.2943C18.2919 52.234 24.2323 48.9412 24.2149 48.3575C24.1975 47.7746 18.0751 44.8352 16.0343 44.8955C13.9935 44.9557 12.3871 46.6602 12.4473 48.703C12.5067 50.7466 14.2103 52.3538 16.2511 52.2943Z" fill="#BDD1F9"/>
<path d="M28.9311 46.359C27.9128 48.6428 28.3842 56.9476 29.0355 57.2379C29.6868 57.529 36.1762 52.3342 37.1944 50.0497C38.2126 47.7658 37.1886 45.0878 34.9063 44.0686C32.6247 43.0494 29.9493 44.0744 28.9311 46.359Z" fill="#BDD1F9"/>
<path d="M20.1449 62.6578C22.6216 62.3275 29.438 57.5704 29.3438 56.8626C29.2495 56.1548 21.4271 53.3491 18.9504 53.6794C16.4738 54.0097 14.7332 56.287 15.0632 58.7668C15.3924 61.2452 17.6682 62.9874 20.1449 62.6578Z" fill="#BDD1F9"/>
<path d="M34.1318 55.3868C33.1136 57.6706 33.585 65.9754 34.2362 66.2658C34.8875 66.5569 41.3769 61.362 42.3951 59.0775C43.4133 56.7937 42.3893 54.1157 40.107 53.0957C37.8254 52.0772 35.15 53.103 34.1318 55.3868Z" fill="#BDD1F9"/>
<path d="M25.3456 71.6856C27.8222 71.3553 34.6387 66.5982 34.5444 65.8904C34.4502 65.1826 26.6278 62.3769 24.1511 62.7072C21.6744 63.0375 19.9339 65.3148 20.2638 67.7946C20.5931 70.2737 22.8689 72.0159 25.3456 71.6856Z" fill="#BDD1F9"/>
<path d="M43.6795 66.114C41.8686 67.8381 39.1446 75.6957 39.6363 76.2133C40.128 76.7309 48.1049 74.4014 49.9158 72.678C51.7267 70.9546 51.7985 68.0878 50.0761 66.2752C48.3537 64.4625 45.4897 64.3906 43.6795 66.114Z" fill="#BDD1F9"/>
<path d="M30.1532 80.6844C32.6516 80.667 40.0084 76.7999 40.0033 76.0856C39.9982 75.372 32.5878 71.6087 30.0886 71.6269C27.5902 71.6443 25.5784 73.6864 25.5965 76.188C25.6146 78.6888 27.654 80.7019 30.1532 80.6844Z" fill="#BDD1F9"/>
<path d="M12.3885 27.8801C12.2776 29.1121 13.8281 32.9225 14.1791 32.9545C14.5309 32.9864 16.7356 29.5142 16.8465 28.2823C16.9575 27.0504 16.0495 25.9615 14.8181 25.8504C13.5873 25.7393 12.4995 26.6482 12.3885 27.8801Z" fill="#BDD1F9"/>
<path d="M9.77548 35.7123C10.9997 35.5431 14.3597 33.1729 14.3111 32.823C14.2625 32.4731 10.3869 31.1047 9.16266 31.2739C7.93846 31.443 7.08269 32.574 7.2524 33.7994C7.42138 35.0255 8.55128 35.8814 9.77548 35.7123Z" fill="#BDD1F9"/>
<path d="M17.1417 32.8384C16.8414 34.5704 18.5922 40.1464 19.086 40.2321C19.5799 40.3177 23.106 35.6594 23.407 33.9273C23.7072 32.1952 22.5483 30.548 20.8186 30.2467C19.0882 29.9469 17.4419 31.107 17.1417 32.8384Z" fill="#BDD1F9"/>
<path d="M12.6518 44.1318C14.3916 43.8915 19.1644 40.5246 19.0962 40.0273C19.0273 39.5301 13.5206 37.586 11.7815 37.8263C10.0424 38.0666 8.82687 39.6738 9.06693 41.4146C9.3077 43.1561 10.9126 44.3728 12.6518 44.1318Z" fill="#BDD1F9"/>
<path d="M111.15 71.0744C111.136 71.0744 111.121 71.073 111.107 71.0693C110.992 71.0432 110.918 70.9227 110.942 70.7993C117.256 38.574 123.508 15.6589 128.545 6.27611C128.657 6.06776 128.738 5.91749 128.767 5.842C128.813 5.72584 128.937 5.6714 129.045 5.72004C129.153 5.76868 129.204 5.90297 129.159 6.01913C129.119 6.12076 129.042 6.26522 128.913 6.50405C123.898 15.8469 117.663 38.7141 111.358 70.8936C111.337 71.0018 111.248 71.0751 111.15 71.0744Z" fill="#4851EC"/>
<path d="M132.419 4.29503C131.818 5.35127 128.541 7.48844 128.26 7.30478C127.979 7.12039 128.254 3.01519 128.855 1.95894C129.457 0.902699 130.742 0.569492 131.726 1.21485C132.709 1.85876 133.02 3.23805 132.419 4.29503Z" fill="#4851EC"/>
<path d="M126.052 7.92042C126.485 9.0979 126.094 13.288 125.781 13.4209C125.468 13.5537 122.513 10.7843 122.079 9.60679C121.645 8.42931 122.183 7.0972 123.28 6.63115C124.377 6.16582 125.618 6.74294 126.052 7.92042Z" fill="#4851EC"/>
<path d="M130.703 14.7609C129.536 14.9497 125.821 13.5965 125.771 13.2394C125.721 12.8822 128.9 10.4147 130.067 10.2267C131.233 10.0379 132.321 10.9004 132.497 12.1526C132.672 13.4049 131.869 14.5729 130.703 14.7609Z" fill="#4851EC"/>
<path d="M117.649 29.6638C118.572 31.5447 118.625 38.6125 118.124 38.8948C117.624 39.1772 112.226 35.1301 111.303 33.2492C110.381 31.3683 111.054 29.0409 112.806 28.0507C114.558 27.0613 116.727 27.7829 117.649 29.6638Z" fill="#4851EC"/>
<path d="M126.562 40.1769C124.648 40.7177 118.22 39.1816 118.076 38.595C117.933 38.0085 122.822 33.2739 124.737 32.733C126.651 32.1922 128.612 33.4198 129.116 35.4749C129.621 37.5301 128.477 39.6353 126.562 40.1769Z" fill="#4851EC"/>
<path d="M113.142 37.9896C114.715 39.9678 116.552 48.3902 116.025 48.8722C115.5 49.3542 108.04 46.0831 106.467 44.1049C104.894 42.1267 105.113 39.1533 106.956 37.4655C108.799 35.7762 111.569 36.0114 113.142 37.9896Z" fill="#4851EC"/>
<path d="M125.78 51.6598C123.386 52.0598 115.743 49.3216 115.637 48.5876C115.53 47.8537 122.037 42.7525 124.432 42.3525C126.826 41.9525 129.069 43.7122 129.441 46.2821C129.814 48.8526 128.174 51.2598 125.78 51.6598Z" fill="#4851EC"/>
<path d="M110.778 48.5259C112.351 50.5049 114.188 58.9265 113.662 59.4085C113.136 59.8906 105.676 56.6195 104.103 54.6413C102.53 52.6631 102.749 49.6904 104.593 48.0018C106.436 46.3126 109.205 46.5478 110.778 48.5259Z" fill="#4851EC"/>
<path d="M123.417 62.1962C121.022 62.5961 113.379 59.8579 113.273 59.124C113.166 58.39 119.673 53.2889 122.068 52.8889C124.463 52.4889 126.705 54.2486 127.078 56.8184C127.451 59.3889 125.812 61.7962 123.417 62.1962Z" fill="#4851EC"/>
<path d="M104.838 62.0372C106.995 63.2234 111.681 70.2592 111.366 70.9198C111.05 71.5804 102.992 71.6058 100.836 70.4196C98.6792 69.2335 97.827 66.395 98.9323 64.0807C100.037 61.7657 102.681 60.851 104.838 62.0372Z" fill="#4851EC"/>
<path d="M121.411 72.5873C119.082 73.3053 111.179 71.6138 110.989 70.9002C110.798 70.1866 116.659 64.252 118.989 63.5333C121.317 62.8154 123.748 64.26 124.417 66.7601C125.086 69.2603 123.74 71.8693 121.411 72.5873Z" fill="#4851EC"/>
<path d="M123.465 14.6876C123.906 15.884 123.508 20.1409 123.19 20.2759C122.871 20.4109 119.869 17.5972 119.429 16.4008C118.988 15.2045 119.535 13.8506 120.649 13.378C121.763 12.9047 123.025 13.4913 123.465 14.6876Z" fill="#4851EC"/>
<path d="M128.042 21.73C126.857 21.9216 123.082 20.5474 123.031 20.1837C122.98 19.8208 126.211 17.3141 127.396 17.1224C128.581 16.9308 129.687 17.807 129.865 19.0796C130.043 20.3521 129.227 21.5391 128.042 21.73Z" fill="#4851EC"/>
<path d="M120.403 21.0331C121.157 22.6722 121.056 28.7491 120.62 28.9807C120.185 29.2115 115.628 25.6029 114.874 23.9644C114.119 22.3252 114.746 20.3405 116.273 19.5311C117.8 18.7217 119.649 19.3939 120.403 21.0331Z" fill="#4851EC"/>
<path d="M127.673 30.9756C125.989 31.2478 120.627 29.295 120.554 28.7789C120.482 28.2627 125.071 24.702 126.755 24.4297C128.439 24.1575 130.009 25.4025 130.263 27.2101C130.517 29.0177 129.357 30.7033 127.673 30.9756Z" fill="#4851EC"/>
<path d="M60.3643 84.7994C60.3643 84.7994 80.0022 58.1566 29.1328 32.3407C29.1328 32.3407 23.9655 90.9126 60.3643 84.7994Z" fill="#6D8AD1"/>
<path d="M29.0755 32.2418L62.223 81.0628C65.5504 72.9134 68.6544 52.3279 29.0755 32.2418Z" fill="#7C9AF2"/>
<path d="M60.8234 79.2325C60.8684 79.2325 60.914 79.2195 60.9539 79.1926C61.0598 79.1207 61.0867 78.9763 61.0149 78.8703L29.267 32.1109C29.1944 32.0042 29.0494 31.9788 28.945 32.0499C28.8391 32.1218 28.8122 32.2663 28.884 32.3723L60.6319 79.1316C60.6769 79.197 60.7494 79.2325 60.8234 79.2325Z" fill="#060633"/>
<path d="M45.6493 56.8837C45.7538 56.8837 45.8488 56.8126 45.8742 56.7066C45.9046 56.5817 45.8285 56.4568 45.7037 56.4264L30.46 52.7095C30.3346 52.6812 30.2105 52.7552 30.1801 52.8801C30.1496 53.005 30.2258 53.1298 30.3505 53.1603L45.5942 56.8772C45.6131 56.8815 45.6312 56.8837 45.6493 56.8837Z" fill="#060633"/>
<path d="M52.4498 66.8995C52.4578 66.8995 52.465 66.8988 52.4723 66.8988C52.5992 66.8864 52.6928 66.7732 52.6812 66.6454L51.2184 51.2983C51.206 51.1705 51.09 51.0834 50.9653 51.0892C50.8383 51.1016 50.7448 51.2148 50.7564 51.3426L52.2192 66.6897C52.2315 66.8102 52.3323 66.8995 52.4498 66.8995Z" fill="#060633"/>
<path d="M61.3325 91.8588C61.3325 91.8588 63.9216 65.142 17.7967 68.3659C17.7967 68.3659 38.5478 111.272 61.3325 91.8588Z" fill="#3B4ACC"/>
<path d="M17.7967 68.3662L61.3325 91.8591C61.3325 91.8591 42.4735 113.691 17.7967 68.3662Z" fill="#7C9AF2"/>
<path d="M27.9769 79.2369C27.9834 79.2383 27.9899 79.239 27.9972 79.239L39.4 79.7058C39.4863 79.7094 39.5596 79.6419 39.5625 79.5556C39.5661 79.4692 39.4979 79.3973 39.4124 79.3929L28.0095 78.9262C27.9232 78.9225 27.8499 78.9901 27.8463 79.0764C27.8441 79.1556 27.9007 79.2238 27.9769 79.2369Z" fill="#3B4ACC"/>
<path d="M41.5728 90.4004C41.5844 90.4026 41.596 90.4033 41.6084 90.4026L56.6845 89.5024C56.7708 89.4973 56.8368 89.4233 56.8318 89.3369C56.8267 89.2505 56.7534 89.1844 56.6664 89.1895L41.5902 90.0897C41.5039 90.0948 41.4379 90.1688 41.443 90.2552C41.4473 90.3292 41.5032 90.3888 41.5728 90.4004Z" fill="#3B4ACC"/>
<path d="M102.326 91.412C102.326 91.412 83.5446 55.3146 150.093 33.5719C150.093 33.5719 145.305 105.733 102.326 91.412Z" fill="#7C9AF2"/>
<path d="M150.181 33.4621L100.778 86.5183C98.2807 75.9856 98.4025 50.3795 150.181 33.4621Z" fill="#91B5F8"/>
<path d="M102.864 84.5102C102.925 84.5102 102.988 84.4855 103.033 84.4361L150.351 33.6202C150.438 33.5265 150.433 33.3799 150.339 33.292C150.245 33.2064 150.099 33.2107 150.012 33.3037L102.694 84.1196C102.607 84.2132 102.612 84.3599 102.706 84.4477C102.751 84.4891 102.807 84.5102 102.864 84.5102Z" fill="#060633"/>
<path d="M125.479 60.2216C125.485 60.2216 125.492 60.2209 125.498 60.2209L144.683 58.5904C144.811 58.5795 144.905 58.467 144.894 58.34C144.883 58.2122 144.774 58.1186 144.644 58.1287L125.46 59.7592C125.332 59.7701 125.238 59.8826 125.249 60.0096C125.259 60.1301 125.36 60.2216 125.479 60.2216Z" fill="#060633"/>
<path d="M115.344 71.107C115.447 71.107 115.542 71.0374 115.568 70.9321L120.237 52.5578C120.269 52.4337 120.194 52.3081 120.07 52.2761C119.945 52.2427 119.82 52.3197 119.789 52.4438L115.119 70.8181C115.087 70.9423 115.162 71.0678 115.286 71.0998C115.306 71.1049 115.325 71.107 115.344 71.107Z" fill="#060633"/>
<path d="M97.7726 91.7289C97.7726 91.7289 102.717 62.827 150.293 79.4634C150.292 79.4634 116.159 118.73 97.7726 91.7289Z" fill="#91B5F8"/>
<path d="M150.292 79.4634L97.7718 91.7289C97.7725 91.7289 111.337 120.152 150.292 79.4634Z" fill="#7C9AF2"/>
<path d="M136.467 87.999C136.46 87.9983 136.453 87.9968 136.446 87.9954L124.321 85.2143C124.229 85.1932 124.172 85.1018 124.193 85.0096C124.214 84.9174 124.307 84.8608 124.397 84.8811L136.522 87.6622C136.614 87.6832 136.671 87.7747 136.65 87.8669C136.631 87.9511 136.552 88.007 136.467 87.999Z" fill="#91B5F8"/>
<path d="M118.968 95.8631C118.955 95.8617 118.942 95.8595 118.93 95.8551L103.336 90.579C103.247 90.5492 103.199 90.452 103.229 90.3627C103.26 90.2734 103.355 90.224 103.445 90.2552L119.04 95.5306C119.129 95.5604 119.177 95.6577 119.147 95.7477C119.12 95.8239 119.045 95.8704 118.968 95.8631Z" fill="#91B5F8"/>
<path d="M96.362 18.5837C96.9661 20.5692 96.8029 22.694 96.969 24.7629C97.1351 26.8319 97.7523 29.0482 99.4319 30.2649C101.22 31.5607 103.669 31.3581 105.734 32.14C108.104 33.038 109.877 35.3472 110.133 37.8705C110.275 39.2702 109.986 40.6741 109.935 42.0796C109.883 43.485 110.123 45.008 111.11 46.0091C111.989 46.9013 113.314 47.2294 114.218 48.0962C115.898 49.707 115.513 52.5542 114.338 54.5636C113.003 56.8481 110.693 58.6644 108.061 58.9265C105.636 59.1675 103.291 58.1142 101.082 57.0848C98.8242 56.0336 96.5658 54.9817 94.3081 53.9306C92.1759 52.9375 89.9415 51.9226 87.591 52.0126C85.981 52.0743 84.4312 52.6551 82.8262 52.8017C79.8078 53.0776 76.8619 51.8021 74.2561 50.2522C73.7064 49.9255 73.1516 49.5727 72.7723 49.058C71.9876 47.9931 72.1363 46.5122 72.4909 45.2374C72.8455 43.9627 73.375 42.6828 73.2357 41.3667C73.0443 39.5598 71.6525 38.137 70.9367 36.4666C69.8902 34.0231 70.358 31.1832 71.2935 28.6946C72.2291 26.2061 73.6056 23.8933 74.4179 21.3612C74.7812 20.228 75.0307 19.0534 75.518 17.9681C76.1961 16.4574 77.3123 15.1769 78.5727 14.1039C79.9768 12.909 81.6231 11.929 83.442 11.6299C85.1252 11.3534 86.3371 11.9356 87.8833 12.4306C88.9284 12.7653 90.03 12.811 91.0714 13.1791C93.5343 14.0509 95.5947 16.064 96.362 18.5837Z" fill="#0B0755"/>
<path d="M79.2268 40.9616C79.2268 40.9616 71.7772 43.9663 69.1084 45.8029C66.4395 47.6395 65.2726 58.324 65.2726 58.324L78.7823 65.8367L93.7932 81.3632L102.299 86.3715C102.299 86.3715 105.802 52.3139 100.798 45.9699C95.7948 39.6259 83.6196 40.9616 83.6196 40.9616H79.2268Z" fill="white"/>
<path d="M60.3505 84.9021C60.3505 84.9021 61.3919 93.8929 59.5701 94.9412C56.2711 96.8388 50.1617 98.6921 50.6984 100.273C51.235 101.854 65.9392 101.703 66.3264 100.249C66.7137 98.7952 65.0022 94.3866 66.6238 85.7333L60.3505 84.9021Z" fill="#E88989"/>
<path d="M66.1328 97.0166C66.3126 98.6268 66.4642 99.7302 66.3264 100.249C65.9391 101.703 51.235 101.854 50.6983 100.272C50.3002 99.1001 53.5282 97.7252 56.5901 96.3575C57.3364 97.5727 58.9174 99.4594 66.1328 97.0166Z" fill="#ED4840"/>
<path d="M67.6884 85.4589C67.6884 85.4589 68.7298 94.4497 66.908 95.498C63.6089 97.3956 57.4996 99.2489 58.0362 100.83C58.5729 102.411 73.277 102.26 73.6643 100.805C74.0516 99.3505 72.34 94.9426 73.9617 86.2894L67.6884 85.4589Z" fill="#FB9391"/>
<path d="M73.4714 97.5734C73.6513 99.1836 73.8028 100.287 73.665 100.805C73.2778 102.259 58.5736 102.41 58.0369 100.83C57.6388 99.6576 60.8668 98.2827 63.9288 96.915C64.675 98.1295 66.256 100.016 73.4714 97.5734Z" fill="#FA7267"/>
<path d="M88.9254 98.8794C80.116 98.8794 75.4462 95.8464 67.6072 84.7649C59.7681 73.6834 76.4558 80.6742 76.4558 80.6742L87.4655 86.8781L90.1228 93.4363L88.9254 98.8794Z" fill="#2D3CC4"/>
<path d="M88.9254 98.8794C80.116 98.8794 75.4462 95.8464 67.6072 84.7649C59.7681 73.6834 76.4558 80.6742 76.4558 80.6742L87.4655 86.8781L90.1228 93.4363L88.9254 98.8794Z" fill="#2D3CC4"/>
<path d="M67.1176 57.0717C67.1176 57.0717 65.7723 55.3824 62.437 55.7679C59.1016 56.1534 57.2668 59.1588 57.2668 73.3488C57.2668 87.5395 57.2668 94.2174 57.2668 94.2174L65.2726 93.5496L69.1084 62.9983L67.1176 57.0717Z" fill="#2D3CC4"/>
<path d="M102.298 86.3715C102.298 86.3715 100.964 99.3934 91.9577 99.3934C82.951 99.3934 75.9467 85.5366 75.9467 85.5366V93.5503H63.6046C63.6046 93.5503 60.46 55.9146 70.2761 55.8202C81.6173 55.7113 93.7925 81.3632 93.7925 81.3632L102.298 86.3715Z" fill="#4851EC"/>
<path d="M75.946 85.6528C76.0098 85.6528 76.062 85.6005 76.062 85.5366V68.0066C76.062 67.9427 76.0098 67.8904 75.946 67.8904C75.8822 67.8904 75.8299 67.9427 75.8299 68.0066V85.5366C75.8307 85.6005 75.8829 85.6528 75.946 85.6528Z" fill="#0B0755"/>
<path d="M96.6274 60.4945C96.6274 60.4945 95.1124 71.0693 87.5598 72.1386C80.0072 73.2079 72.7773 72.6141 72.7773 72.6141V76.1879C72.7773 76.1879 88.4547 81.3632 96.6274 76.1879C104.8 71.0127 105.134 60.4952 105.134 60.4952H96.6274V60.4945Z" fill="#FB9391"/>
<path d="M97.0104 42.9783C102.521 45.747 104.077 47.3056 105.856 61.3287H95.404L94.9594 51.3121L96.5267 42.7424L97.0104 42.9783Z" fill="white"/>
<path d="M75.4927 25.8003C75.4927 25.8003 74.8334 24.6475 74.2264 25.0591C72.678 26.1096 74.1735 27.7357 75.1344 28.1277L75.4927 25.8003Z" fill="#EA6868"/>
<path d="M85.6482 12.9932C90.1396 13.5827 93.5351 17.5144 93.4786 22.0486C93.4597 23.5397 93.0833 24.9313 92.4386 26.1538C90.9917 29.2108 89.8009 31.6717 88.4041 33.4285C86.9884 35.21 86.2487 37.4342 86.4227 39.7035L86.5105 40.8454C80.9581 43.9525 79.0964 41.0944 79.0964 41.0944L79.4126 36.2589C73.792 35.2114 75.2302 24.7963 75.4325 21.7031L75.4412 21.7053C75.4441 21.5891 75.4478 21.473 75.455 21.3554C75.793 16.1787 80.4258 12.3072 85.6482 12.9932Z" fill="#FB9391"/>
<path d="M85.762 22.1532C87.2226 24.1292 88.7855 26.0762 89.8277 28.2946C89.943 28.5386 90.7538 30.3701 90.4732 30.5567C92.0063 29.5411 93.0499 27.944 93.9463 26.3375C95.4998 23.5528 95.3271 20.0741 93.831 17.3046C92.3515 14.5663 89.6696 13.0186 86.6359 12.57C83.3825 12.0894 79.7426 12.954 77.564 15.5558C75.5195 17.9979 75.2222 21.2356 74.8081 24.2635C75.2729 20.8646 80.0261 18.6178 82.8538 17.5913C82.7712 17.6211 84.7061 20.6759 84.8098 20.8254C85.1173 21.2726 85.4371 21.714 85.762 22.1532Z" fill="#0B0755"/>
<path d="M89.5273 28.4994C89.6919 28.2177 89.9596 28.0115 90.27 27.9099C90.9082 27.6994 92.0221 27.4976 92.7263 28.3012C93.7598 29.4808 91.3433 32.2692 89.2401 30.6663C89.2401 30.6663 88.6527 29.9963 89.5273 28.4994Z" fill="#FB9391"/>
<path d="M77.8467 31.5229C77.8467 31.5229 79.3131 30.3353 79.699 30.4935C80.0848 30.6518 80.2458 31.1621 80.2458 31.1621C80.2458 31.1621 80.5424 30.7091 81.029 30.7607C81.5157 30.8122 82.481 32.6227 82.481 32.6227C82.481 32.6227 81.198 33.1831 79.7323 32.8332C78.4929 32.5363 77.8467 31.5229 77.8467 31.5229Z" fill="#FA7267"/>
<path d="M87.0906 26.0471C87.1834 26.0609 87.2813 26.0348 87.3568 25.9673C87.4917 25.8468 87.5033 25.6391 87.3829 25.5048C87.3466 25.4642 86.4734 24.5147 85.0164 24.3644C84.8366 24.3455 84.6756 24.4762 84.6567 24.6562C84.6379 24.8363 84.7836 25.0018 84.9483 25.0163C86.1623 25.1426 86.8875 25.9339 86.8948 25.9419C86.9477 26.0014 87.0173 26.037 87.0906 26.0471Z" fill="#0B0755"/>
<path d="M79.1551 23.5579C79.2406 23.5194 79.3095 23.4446 79.3364 23.3473C79.385 23.1731 79.2834 22.9924 79.1094 22.9437C79.0571 22.9292 77.8228 22.5931 76.5022 23.2573C76.3404 23.3386 76.2752 23.5354 76.3564 23.6972C76.4369 23.8591 76.6407 23.923 76.7959 23.8432C77.8881 23.2936 78.923 23.5724 78.9339 23.5746C79.01 23.5956 79.0876 23.5884 79.1551 23.5579Z" fill="#0B0755"/>
<path d="M80.607 30.0659C79.6881 29.8641 79.4249 29.1447 79.422 28.7404C79.4213 28.67 79.4481 28.6017 79.4967 28.5502C80.3967 27.5876 80.4083 26.0921 80.4083 26.0769C80.4083 25.9244 80.5316 25.801 80.6839 25.801C80.834 25.8003 80.9595 25.9237 80.9595 26.0762C80.9595 26.1437 80.9515 27.7117 79.984 28.8326C80.0239 29.0532 80.2154 29.5534 81.1009 29.5679C81.2561 29.5716 81.375 29.6957 81.3721 29.8482C81.3692 30.0006 81.2445 30.1226 81.0922 30.1197C80.9131 30.1168 80.7521 30.0979 80.607 30.0659Z" fill="#EA6868"/>
<path d="M82.481 32.7381C82.5129 32.7381 82.5449 32.725 82.5681 32.6989C82.6101 32.651 82.6058 32.5777 82.5579 32.5348C80.8463 31.0155 77.9534 31.3915 77.8308 31.4075C77.7677 31.4162 77.7235 31.475 77.7315 31.5381C77.7402 31.6013 77.7931 31.647 77.862 31.6376C77.8917 31.6332 80.7724 31.2594 82.4034 32.7083C82.4266 32.7279 82.4542 32.7381 82.481 32.7381Z" fill="#060633"/>
<path d="M84.9925 27.8191C84.5479 27.8191 84.1875 27.4584 84.1875 27.0133C84.1875 26.5683 84.5479 26.2076 84.9925 26.2076C85.4371 26.2076 85.7975 26.5683 85.7975 27.0133C85.7975 27.4584 85.4371 27.8191 84.9925 27.8191Z" fill="#060633"/>
<path d="M77.6538 26.3251C77.2092 26.3251 76.8488 25.9644 76.8488 25.5194C76.8488 25.0743 77.2092 24.7136 77.6538 24.7136C78.0984 24.7136 78.4589 25.0743 78.4589 25.5194C78.4589 25.9644 78.0984 26.3251 77.6538 26.3251Z" fill="#060633"/>
<path d="M84.9926 29.2798C84.9926 29.0409 85.4241 28.4094 85.4241 28.4094C85.4241 28.4094 85.8556 29.0409 85.8556 29.2798C85.8556 29.5186 85.6619 29.7117 85.4241 29.7117C85.1855 29.7117 84.9926 29.5186 84.9926 29.2798Z" fill="#E7EEFD"/>
<path d="M76.4841 27.4257C76.5632 27.2333 77.1201 26.8674 77.1201 26.8674C77.1201 26.8674 77.2587 27.5201 77.1796 27.7124C77.1006 27.9048 76.8808 27.9963 76.6886 27.9171C76.4965 27.8387 76.4051 27.6181 76.4841 27.4257Z" fill="#E7EEFD"/>
<path d="M85.1289 31.9018C85.1223 31.6942 85.4813 31.1316 85.4813 31.1316C85.4813 31.1316 85.8744 31.6703 85.8809 31.8779C85.8874 32.0855 85.7243 32.2597 85.5169 32.2663C85.3087 32.2728 85.1354 32.1095 85.1289 31.9018Z" fill="#E7EEFD"/>
<path d="M94.9594 61.4448H96.3802C96.444 61.4448 96.4962 61.3925 96.4962 61.3286C96.4962 61.2647 96.444 61.2124 96.3802 61.2124H95.069L94.5751 52.4736C94.5714 52.409 94.5025 52.3574 94.4532 52.364C94.3887 52.3676 94.3401 52.422 94.3437 52.4859L94.8441 61.3344C94.8478 61.3968 94.8985 61.4448 94.9594 61.4448Z" fill="#4851EC"/>
<path d="M86.9789 64.0756C90.6602 64.0756 93.5177 61.4513 93.5576 61.4136C93.604 61.37 93.6061 61.296 93.5626 61.2495C93.5184 61.2023 93.4451 61.2009 93.3987 61.2437C93.3443 61.2952 87.8514 66.334 82.3527 62.2375C82.3004 62.1983 82.2286 62.2107 82.1909 62.2608C82.1525 62.3123 82.1634 62.3849 82.2141 62.4226C83.8495 63.6415 85.4828 64.0756 86.9789 64.0756Z" fill="#4851EC"/>
<path d="M69.1084 59.8593C69.1179 59.8593 69.1273 59.8578 69.1374 59.8557C69.1991 59.8397 69.2368 59.7765 69.2208 59.7141C68.4086 56.5432 70.8497 52.5817 70.8751 52.5425C70.9092 52.4881 70.8925 52.4169 70.8388 52.3828C70.7852 52.3502 70.7126 52.3654 70.6793 52.4198C70.5763 52.5854 68.1605 56.5062 68.9975 59.7729C69.0098 59.8245 69.0569 59.8593 69.1084 59.8593Z" fill="#4851EC"/>
<path d="M75.2844 73.1237C75.2844 73.1237 72.4836 70.3274 71.4015 69.4113C70.3202 68.4951 69.9518 66.8037 69.2411 67.216C68.5303 67.6284 69.7458 70.0704 69.7458 70.0704C69.7458 70.0704 66.9392 69.4142 66.1073 69.081C65.2755 68.7478 63.6365 68.5314 63.3456 69.1216C63.0548 69.7118 67.1625 71.0316 67.1625 71.0316C67.1625 71.0316 63.5944 70.2606 63.21 70.7477C62.8257 71.2349 67.2213 72.8842 67.2213 72.8842C67.2213 72.8842 63.4559 71.8751 63.0918 72.0544C62.7277 72.233 62.9417 72.7071 64.1884 73.388C65.435 74.0689 66.8833 74.4435 66.8833 74.4435C66.8833 74.4435 64.184 73.9332 63.8395 73.9847C63.4943 74.0363 63.057 74.36 65.01 75.1738C66.9631 75.9876 71.9317 77.0453 74.4018 76.6642L75.2844 73.1237Z" fill="#FB9391"/>
<path d="M57.0615 59.7432C57.0615 59.7432 60.5311 60.835 60.4397 61.3417C60.3483 61.8484 57.4698 61.6169 57.5126 61.6372C57.5554 61.6568 60.5137 62.3951 60.6268 63.1079C60.7399 63.8208 57.4394 63.4056 57.4394 63.4056C57.4394 63.4056 60.2649 63.8949 60.3157 64.387C60.3664 64.8792 57.6105 64.7079 57.5931 64.8974C57.5757 65.0869 59.9552 65.0556 60.0452 65.664C60.1344 66.2716 56.7816 66.4458 56.3842 65.8752C55.9867 65.3046 56.4697 64.7849 56.4697 64.7849C56.4697 64.7849 55.9077 63.7569 56.2834 63.235C56.2834 63.235 56.0658 61.6473 56.7395 61.4172C56.7381 61.4165 55.9983 60.2252 57.0615 59.7432Z" fill="#FB9391"/>
<path d="M102.479 100.073C102.473 100.073 102.467 100.072 102.461 100.071C102.414 100.061 102.384 100.014 102.394 99.9669C104.995 87.5881 107.57 78.7868 109.645 75.1825C109.691 75.1026 109.724 75.0446 109.736 75.0155C109.755 74.9705 109.806 74.9502 109.851 74.9683C109.896 74.9872 109.916 75.0388 109.898 75.083C109.881 75.1223 109.849 75.1774 109.796 75.2696C107.73 78.8579 105.162 87.6418 102.565 100.003C102.556 100.045 102.52 100.074 102.479 100.073Z" fill="#0B0755"/>
<path d="M111.24 74.4217C110.993 74.8275 109.642 75.6486 109.527 75.5774C109.411 75.507 109.525 73.9295 109.772 73.5237C110.02 73.1179 110.549 72.9902 110.954 73.2377C111.36 73.486 111.488 74.0159 111.24 74.4217Z" fill="#0B0755"/>
<path d="M108.618 75.8141C108.796 76.2663 108.635 77.8757 108.506 77.9265C108.377 77.9773 107.16 76.9139 106.981 76.4616C106.802 76.0093 107.024 75.4975 107.475 75.319C107.928 75.1404 108.439 75.3618 108.618 75.8141Z" fill="#0B0755"/>
<path d="M110.533 78.4419C110.052 78.5145 108.522 77.9948 108.502 77.8576C108.481 77.7204 109.79 76.773 110.271 76.7004C110.752 76.6278 111.2 76.9596 111.272 77.4401C111.345 77.9207 111.014 78.3693 110.533 78.4419Z" fill="#0B0755"/>
<path d="M105.156 84.166C105.536 84.8883 105.558 87.6034 105.352 87.7123C105.146 87.8212 102.923 86.2662 102.542 85.5439C102.162 84.8216 102.44 83.9272 103.161 83.5468C103.883 83.1664 104.776 83.4437 105.156 84.166Z" fill="#0B0755"/>
<path d="M108.828 88.2044C108.039 88.4121 105.392 87.8226 105.332 87.5968C105.273 87.3718 107.287 85.5533 108.076 85.345C108.865 85.1373 109.672 85.6085 109.88 86.3983C110.088 87.1881 109.616 87.9968 108.828 88.2044Z" fill="#0B0755"/>
<path d="M103.3 87.3645C103.947 88.1246 104.704 91.3594 104.488 91.5445C104.271 91.7296 101.198 90.473 100.55 89.7129C99.9026 88.9529 99.9925 87.811 100.752 87.1627C101.511 86.5144 102.652 86.6045 103.3 87.3645Z" fill="#0B0755"/>
<path d="M108.506 92.6153C107.52 92.7692 104.372 91.7173 104.327 91.4356C104.284 91.1539 106.964 89.1939 107.95 89.0407C108.936 88.8875 109.86 89.5627 110.014 90.5499C110.167 91.5372 109.492 92.4621 108.506 92.6153Z" fill="#0B0755"/>
<path d="M102.326 91.4116C102.975 92.1717 103.731 95.4065 103.514 95.5916C103.297 95.7767 100.225 94.5201 99.5769 93.7601C98.9293 93 99.0192 91.8581 99.7786 91.2098C100.537 90.5616 101.678 90.6516 102.326 91.4116Z" fill="#0B0755"/>
<path d="M107.532 96.6624C106.546 96.8163 103.397 95.7644 103.353 95.482C103.31 95.2003 105.989 93.2403 106.976 93.0871C107.962 92.9332 108.886 93.6091 109.04 94.5963C109.194 95.5844 108.518 96.5092 107.532 96.6624Z" fill="#0B0755"/>
<path d="M99.8787 96.6014C100.767 97.0573 102.698 99.76 102.568 100.013C102.438 100.267 99.1186 100.277 98.2302 99.8217C97.3418 99.3658 96.9908 98.2762 97.4463 97.3869C97.9017 96.4969 98.991 96.1455 99.8787 96.6014Z" fill="#0B0755"/>
<path d="M106.706 100.654C105.747 100.93 102.492 100.28 102.413 100.007C102.334 99.7324 104.749 97.4529 105.708 97.1771C106.668 96.9012 107.668 97.4558 107.944 98.4162C108.22 99.3759 107.666 100.378 106.706 100.654Z" fill="#0B0755"/>
<path d="M107.552 78.4136C107.734 78.8732 107.571 80.5087 107.439 80.5602C107.308 80.6118 106.071 79.5316 105.89 79.0713C105.709 78.6118 105.934 78.092 106.393 77.9098C106.851 77.7291 107.37 77.9541 107.552 78.4136Z" fill="#0B0755"/>
<path d="M109.437 81.1185C108.949 81.1919 107.394 80.6641 107.373 80.5247C107.352 80.3853 108.683 79.4227 109.171 79.3487C109.659 79.2754 110.115 79.6115 110.188 80.1C110.262 80.5893 109.925 81.0452 109.437 81.1185Z" fill="#0B0755"/>
<path d="M106.29 80.8507C106.601 81.48 106.559 83.8147 106.38 83.9032C106.2 83.9918 104.323 82.606 104.012 81.9766C103.702 81.3472 103.96 80.585 104.589 80.2735C105.219 79.9628 105.98 80.2213 106.29 80.8507Z" fill="#0B0755"/>
<path d="M109.286 84.6698C108.592 84.7743 106.383 84.0244 106.354 83.8263C106.324 83.6281 108.214 82.2604 108.908 82.1559C109.601 82.0513 110.248 82.5297 110.352 83.2237C110.457 83.9177 109.979 84.5653 109.286 84.6698Z" fill="#0B0755"/>
</svg>
