<svg width="74" height="18" viewBox="0 0 74 18" fill="none" xmlns="http://www.w3.org/2000/svg">
<path d="M23.0642 13.475H21.3869C21.2484 13.475 21.1353 13.3651 21.1353 13.2306V0.248029C21.1353 0.112575 21.2484 0.00366211 21.3869 0.00366211H23.0642C23.2027 0.00366211 23.3157 0.112575 23.3157 0.248029V13.2297C23.3157 13.3651 23.2027 13.475 23.0642 13.475Z" fill="#263041"/>
<path d="M0 0.462192C0 0.206842 0.212955 0 0.475851 0H1.71401C1.9769 0 2.18986 0.206842 2.18986 0.462192V5.0411C2.18986 5.27814 2.47725 5.40445 2.66005 5.24703C3.20846 4.77385 3.95475 4.49654 4.89797 4.49654C6.93423 4.49654 8.33634 5.93345 8.33634 8.41464V13.0082C8.33634 13.2635 8.12339 13.4704 7.86049 13.4704H6.62328C6.36038 13.4704 6.14743 13.2635 6.14743 13.0082V8.80636C6.14743 7.33192 5.39832 6.64184 4.34202 6.64184C2.86264 6.64184 2.24828 7.94788 2.1908 9.19808V13.0082C2.1908 13.2635 1.97784 13.4704 1.71495 13.4704H0.475851C0.212955 13.4704 0 13.2635 0 13.0082V0.462192Z" fill="#263041"/>
<path d="M14.6948 4.49652C17.4991 4.49652 19.4015 6.34346 19.4015 9.06719C19.4015 11.7909 17.5 13.6571 14.6948 13.6571C11.8906 13.6571 10.0079 11.7909 10.0079 9.06719C10.0079 6.34346 11.8906 4.49652 14.6948 4.49652ZM14.6948 11.5493C16.2128 11.5493 17.2117 10.5416 17.2117 9.08641C17.2117 7.59367 16.2128 6.62352 14.6948 6.62352C13.1966 6.62352 12.1978 7.59367 12.1978 9.08641C12.1978 10.5416 13.1966 11.5493 14.6948 11.5493Z" fill="#263041"/>
<path d="M26.7381 0.373413C27.6022 0.373413 28.1402 0.914315 28.1402 1.73528C28.1402 2.55624 27.6022 3.11637 26.7381 3.11637C25.8929 3.11637 25.3162 2.55624 25.3162 1.73528C25.3172 0.914315 25.8929 0.373413 26.7381 0.373413Z" fill="#11C4B0"/>
<path d="M33.5951 8.1721C32.4436 7.91034 31.8848 7.68794 31.866 7.18273C31.866 6.81023 32.405 6.49265 33.2106 6.49265C33.3246 6.49265 33.4226 6.49265 33.5376 6.51095C34.2434 6.58051 34.7654 6.80932 35.0971 6.98138H35.0999C35.1687 7.02074 35.2525 7.04179 35.3383 7.04179C35.5098 7.04179 35.6624 6.95576 35.7529 6.82671C35.7717 6.80108 35.7859 6.77362 35.7981 6.74525L36.225 5.95998C36.2419 5.93253 36.2561 5.90415 36.2702 5.8767C36.2938 5.81904 36.3079 5.75406 36.3079 5.68633C36.3079 5.54264 36.2438 5.41084 36.1411 5.32024C36.1006 5.29461 36.0525 5.26715 36.0026 5.23695C36.0007 5.2342 35.9951 5.2342 35.9932 5.2342C35.4872 4.94499 34.527 4.52765 33.3058 4.51392C31.2695 4.49561 29.6187 5.50328 29.695 7.25687C29.7327 8.60043 30.6373 9.3857 32.4615 9.86985C33.711 10.224 34.5364 10.43 34.5364 10.9883C34.5364 11.6417 33.3058 11.6784 32.8648 11.6784C32.061 11.6207 31.4033 11.3516 30.9614 11.132C30.935 11.1155 30.9068 11.1018 30.8757 11.088C30.8163 11.0651 30.7494 11.0505 30.6797 11.0505C30.5053 11.0505 30.3555 11.1365 30.2622 11.2638C30.2622 11.2665 30.2622 11.2665 30.2604 11.2683L30.217 11.347C30.217 11.3516 30.2142 11.3544 30.2123 11.3589L29.7996 12.1534C29.7996 12.1561 29.7977 12.1607 29.792 12.1625L29.7543 12.2366C29.7543 12.2394 29.7515 12.2412 29.7515 12.2431C29.728 12.2989 29.7157 12.3611 29.7157 12.4261C29.7157 12.5863 29.7968 12.73 29.9183 12.8196C29.9372 12.8315 29.9569 12.8407 29.9777 12.8544C29.9918 12.8617 30.0059 12.8682 30.021 12.8755C30.593 13.1885 31.7473 13.6379 33.1899 13.6379C35.3223 13.6562 36.7621 12.5744 36.7244 10.84C36.6688 9.29051 35.5937 8.63795 33.5951 8.1721Z" fill="#263041"/>
<path d="M43.5587 12.6311C43.5512 12.6101 43.5418 12.589 43.5352 12.5689L43.1677 11.6491C43.1648 11.6463 43.1648 11.6445 43.1648 11.6418L43.1385 11.5795C43.0574 11.4148 42.8859 11.3013 42.6852 11.3013C42.6164 11.3013 42.5495 11.315 42.4892 11.3388C42.461 11.3525 42.4318 11.3663 42.4035 11.3827C42.2678 11.445 42.1123 11.4944 41.9691 11.4944C41.3726 11.4944 41.22 11.0469 41.22 9.53489V6.95577C41.22 6.80292 41.3463 6.68028 41.5036 6.68028H42.7795C43.0414 6.68028 43.2562 6.47161 43.2562 6.21718V5.20493C43.2562 4.95233 43.0584 4.7464 42.8058 4.72077H41.5036C41.3463 4.72077 41.22 4.59813 41.22 4.44529V2.27253C41.22 2.01809 41.008 1.80942 40.7432 1.80942H39.5654C39.3081 1.80942 39.0961 1.99979 39.0669 2.24507V2.24964V2.34666L39.0528 4.44712C39.0509 4.59813 38.9237 4.72077 38.7663 4.72077H38.0982C37.8457 4.7464 37.6478 4.95233 37.6478 5.20493V6.21718C37.6478 6.47161 37.8598 6.68028 38.1227 6.68028H38.7663C38.9218 6.68028 39.0499 6.80292 39.0499 6.95577V10.6158C39.0311 12.5195 39.9705 13.6388 41.5847 13.6388C42.15 13.6388 42.7653 13.5088 43.2685 13.2196C43.2855 13.215 43.2996 13.2077 43.3118 13.1986C43.3401 13.1821 43.3665 13.1665 43.3929 13.1473C43.3929 13.1446 43.3957 13.1446 43.3957 13.1446C43.5078 13.054 43.5766 12.9203 43.5766 12.7693C43.5776 12.7208 43.571 12.6751 43.5587 12.6311Z" fill="#263041"/>
<path d="M46.3855 0.425576C46.9895 0.580251 47.3485 1.06441 47.3485 1.73527C47.3485 2.55624 46.8105 3.11636 45.9464 3.11636C45.2519 3.11636 44.7393 2.73928 44.5782 2.14896C44.2965 1.11475 45.3207 0.153753 46.3855 0.425576Z" fill="#11C4B0"/>
<path d="M57.0399 11.3681L56.2908 10.6991C56.288 10.6991 56.288 10.6963 56.288 10.6963L56.1928 10.6103C56.19 10.6075 56.1853 10.6057 56.1834 10.603C56.1043 10.5517 56.0091 10.5215 55.9045 10.5215C55.7754 10.5215 55.6567 10.5682 55.5681 10.6469C55.5417 10.6771 55.5153 10.7073 55.4871 10.7348L55.4842 10.7375C55.0762 11.1658 54.4279 11.5667 53.4386 11.5667C51.9413 11.5667 50.9415 10.5773 50.9415 9.10473C50.9415 7.62937 51.9403 6.64001 53.4386 6.64001C54.297 6.64001 55.0056 6.96858 55.5182 7.53876L55.5257 7.54609C55.5474 7.57354 55.5709 7.60192 55.5945 7.63212L55.5973 7.63486C55.6878 7.72273 55.814 7.77855 55.9525 7.77855C56.0524 7.77855 56.1457 7.74835 56.2249 7.69984C56.2277 7.6971 56.2296 7.69527 56.2324 7.69527L56.3059 7.63486C56.3087 7.63212 56.3087 7.63212 56.3106 7.63029L57.1718 6.93563C57.2811 6.84502 57.3528 6.70865 57.3528 6.55855C57.3528 6.47527 57.3311 6.39381 57.2934 6.327C57.2906 6.32242 57.2887 6.31784 57.2859 6.3151C57.2642 6.2849 57.2406 6.25469 57.219 6.22449L57.2067 6.21259C56.2767 5.03377 54.9556 4.53314 53.4009 4.53314C51.0763 4.56975 48.7696 6.08263 48.7696 9.10564C48.7696 11.8111 50.6532 13.6754 53.4386 13.6754C55.0527 13.6754 56.3144 13.0896 57.1134 12.0728C57.1276 12.0545 57.1398 12.038 57.1568 12.0197C57.2048 11.9429 57.2331 11.8532 57.2331 11.7552C57.2331 11.6253 57.1832 11.5072 57.0993 11.4221C57.0804 11.4029 57.0588 11.3873 57.0399 11.3681Z" fill="#263041"/>
<path d="M71.6037 4.54596L70.342 4.54871C70.1347 4.54871 69.9604 4.66952 69.8841 4.84066C69.8746 4.85714 69.8671 4.87544 69.8624 4.89192L67.404 10.97L65.0219 4.91297C65.02 4.90839 65.02 4.90382 65.0172 4.90107L64.9889 4.83426C64.9126 4.67409 64.743 4.56335 64.5498 4.55877H64.5263L63.3343 4.56152H63.1128C62.8886 4.61277 62.7218 4.80497 62.7218 5.03835C62.7218 5.08046 62.7265 5.12164 62.7388 5.161C62.7529 5.19852 62.767 5.23513 62.7821 5.26991C62.7849 5.27174 62.7849 5.27448 62.7849 5.27448C64.9503 10.5581 66.0867 13.5134 66.0914 13.7541C66.0914 13.7724 66.1385 13.9976 65.9576 14.3362C65.8238 14.5842 65.527 14.77 65.2914 14.7581C64.8627 14.7362 64.6261 14.6163 64.2879 14.3701C64.2756 14.3609 64.2643 14.3518 64.2502 14.3426C64.171 14.2914 64.0759 14.2593 63.9713 14.2593C63.8158 14.2593 63.6754 14.3289 63.583 14.4378C63.5802 14.4424 63.5783 14.4451 63.5736 14.4497L63.519 14.5375L63.1138 15.1837L63.0469 15.2899C63.0441 15.2944 63.0422 15.299 63.0393 15.3036C63.0158 15.3613 62.9564 15.4244 62.9564 15.4912C62.9564 15.5745 62.9253 15.6642 62.964 15.7319C62.9668 15.7338 62.9913 15.807 62.9941 15.8088C63.0252 15.8482 63.0544 15.904 63.0921 15.9452C63.0921 15.9479 63.1713 16.0056 63.1741 16.0083C63.5887 16.4971 64.318 16.9885 65.478 17.038C65.8869 17.0554 66.4589 16.9528 67.0242 16.5703C67.5811 16.1923 67.8883 15.5745 68.1333 14.9723L72.0683 5.22323C72.0758 5.2095 72.0805 5.19303 72.0852 5.1793C72.1022 5.13262 72.1088 5.08412 72.1088 5.03378C72.1041 4.76287 71.8808 4.54596 71.6037 4.54596Z" fill="#263041"/>
<path d="M61.0342 13.475H59.3569C59.2184 13.475 59.1053 13.3651 59.1053 13.2306V0.248029C59.1053 0.112575 59.2184 0.00366211 59.3569 0.00366211H61.0342C61.1727 0.00366211 61.2858 0.112575 61.2858 0.248029V13.2297C61.2858 13.3651 61.1736 13.475 61.0342 13.475Z" fill="#263041"/>
<path d="M27.5777 13.475H25.891C25.7515 13.475 25.6394 13.3651 25.6394 13.2306V4.96605C25.6394 4.83151 25.7525 4.72168 25.891 4.72168H27.5777C27.7162 4.72168 27.8293 4.83151 27.8293 4.96605V13.2297C27.8293 13.3651 27.7171 13.475 27.5777 13.475Z" fill="#263041"/>
<path d="M46.7794 13.475H45.0927C44.9533 13.475 44.8411 13.3651 44.8411 13.2306V4.96605C44.8411 4.83151 44.9542 4.72168 45.0927 4.72168H46.7794C46.9179 4.72168 47.031 4.83151 47.031 4.96605V13.2297C47.031 13.3651 46.9189 13.475 46.7794 13.475Z" fill="#263041"/>
<path d="M23.0642 13.475H21.3869C21.2484 13.475 21.1353 13.3651 21.1353 13.2306V0.248029C21.1353 0.112575 21.2484 0.00366211 21.3869 0.00366211H23.0642C23.2027 0.00366211 23.3157 0.112575 23.3157 0.248029V13.2297C23.3157 13.3651 23.2027 13.475 23.0642 13.475Z" fill="#263041"/>
<path d="M0 0.462192C0 0.206842 0.212955 0 0.475851 0H1.71401C1.9769 0 2.18986 0.206842 2.18986 0.462192V5.0411C2.18986 5.27814 2.47725 5.40445 2.66005 5.24703C3.20846 4.77385 3.95475 4.49654 4.89797 4.49654C6.93423 4.49654 8.33634 5.93345 8.33634 8.41464V13.0082C8.33634 13.2635 8.12339 13.4704 7.86049 13.4704H6.62328C6.36038 13.4704 6.14743 13.2635 6.14743 13.0082V8.80636C6.14743 7.33192 5.39832 6.64184 4.34202 6.64184C2.86264 6.64184 2.24828 7.94788 2.1908 9.19808V13.0082C2.1908 13.2635 1.97784 13.4704 1.71495 13.4704H0.475851C0.212955 13.4704 0 13.2635 0 13.0082V0.462192Z" fill="#263041"/>
<path d="M14.6948 4.49652C17.4991 4.49652 19.4015 6.34346 19.4015 9.06719C19.4015 11.7909 17.5 13.6571 14.6948 13.6571C11.8906 13.6571 10.0079 11.7909 10.0079 9.06719C10.0079 6.34346 11.8906 4.49652 14.6948 4.49652ZM14.6948 11.5493C16.2128 11.5493 17.2117 10.5416 17.2117 9.08641C17.2117 7.59367 16.2128 6.62352 14.6948 6.62352C13.1966 6.62352 12.1978 7.59367 12.1978 9.08641C12.1978 10.5416 13.1966 11.5493 14.6948 11.5493Z" fill="#263041"/>
<path d="M26.7381 0.373413C27.6022 0.373413 28.1402 0.914315 28.1402 1.73528C28.1402 2.55624 27.6022 3.11637 26.7381 3.11637C25.8929 3.11637 25.3162 2.55624 25.3162 1.73528C25.3172 0.914315 25.8929 0.373413 26.7381 0.373413Z" fill="#11C4B0"/>
<path d="M33.5951 8.1721C32.4436 7.91034 31.8848 7.68794 31.866 7.18273C31.866 6.81023 32.405 6.49265 33.2106 6.49265C33.3246 6.49265 33.4226 6.49265 33.5376 6.51095C34.2434 6.58051 34.7654 6.80932 35.0971 6.98138H35.0999C35.1687 7.02074 35.2525 7.04179 35.3383 7.04179C35.5098 7.04179 35.6624 6.95576 35.7529 6.82671C35.7717 6.80108 35.7859 6.77362 35.7981 6.74525L36.225 5.95998C36.2419 5.93253 36.2561 5.90415 36.2702 5.8767C36.2938 5.81904 36.3079 5.75406 36.3079 5.68633C36.3079 5.54264 36.2438 5.41084 36.1411 5.32024C36.1006 5.29461 36.0525 5.26715 36.0026 5.23695C36.0007 5.2342 35.9951 5.2342 35.9932 5.2342C35.4872 4.94499 34.527 4.52765 33.3058 4.51392C31.2695 4.49561 29.6187 5.50328 29.695 7.25687C29.7327 8.60043 30.6373 9.3857 32.4615 9.86985C33.711 10.224 34.5364 10.43 34.5364 10.9883C34.5364 11.6417 33.3058 11.6784 32.8648 11.6784C32.061 11.6207 31.4033 11.3516 30.9614 11.132C30.935 11.1155 30.9068 11.1018 30.8757 11.088C30.8163 11.0651 30.7494 11.0505 30.6797 11.0505C30.5053 11.0505 30.3555 11.1365 30.2622 11.2638C30.2622 11.2665 30.2622 11.2665 30.2604 11.2683L30.217 11.347C30.217 11.3516 30.2142 11.3544 30.2123 11.3589L29.7996 12.1534C29.7996 12.1561 29.7977 12.1607 29.792 12.1625L29.7543 12.2366C29.7543 12.2394 29.7515 12.2412 29.7515 12.2431C29.728 12.2989 29.7157 12.3611 29.7157 12.4261C29.7157 12.5863 29.7968 12.73 29.9183 12.8196C29.9372 12.8315 29.9569 12.8407 29.9777 12.8544C29.9918 12.8617 30.0059 12.8682 30.021 12.8755C30.593 13.1885 31.7473 13.6379 33.1899 13.6379C35.3223 13.6562 36.7621 12.5744 36.7244 10.84C36.6688 9.29051 35.5937 8.63795 33.5951 8.1721Z" fill="#263041"/>
<path d="M43.5587 12.6311C43.5512 12.6101 43.5418 12.589 43.5352 12.5689L43.1677 11.6491C43.1648 11.6463 43.1648 11.6445 43.1648 11.6418L43.1385 11.5795C43.0574 11.4148 42.8859 11.3013 42.6852 11.3013C42.6164 11.3013 42.5495 11.315 42.4892 11.3388C42.461 11.3525 42.4318 11.3663 42.4035 11.3827C42.2678 11.445 42.1123 11.4944 41.9691 11.4944C41.3726 11.4944 41.22 11.0469 41.22 9.53489V6.95577C41.22 6.80292 41.3463 6.68028 41.5036 6.68028H42.7795C43.0414 6.68028 43.2562 6.47161 43.2562 6.21718V5.20493C43.2562 4.95233 43.0584 4.7464 42.8058 4.72077H41.5036C41.3463 4.72077 41.22 4.59813 41.22 4.44529V2.27253C41.22 2.01809 41.008 1.80942 40.7432 1.80942H39.5654C39.3081 1.80942 39.0961 1.99979 39.0669 2.24507V2.24964V2.34666L39.0528 4.44712C39.0509 4.59813 38.9237 4.72077 38.7663 4.72077H38.0982C37.8457 4.7464 37.6478 4.95233 37.6478 5.20493V6.21718C37.6478 6.47161 37.8598 6.68028 38.1227 6.68028H38.7663C38.9218 6.68028 39.0499 6.80292 39.0499 6.95577V10.6158C39.0311 12.5195 39.9705 13.6388 41.5847 13.6388C42.15 13.6388 42.7653 13.5088 43.2685 13.2196C43.2855 13.215 43.2996 13.2077 43.3118 13.1986C43.3401 13.1821 43.3665 13.1665 43.3929 13.1473C43.3929 13.1446 43.3957 13.1446 43.3957 13.1446C43.5078 13.054 43.5766 12.9203 43.5766 12.7693C43.5776 12.7208 43.571 12.6751 43.5587 12.6311Z" fill="#263041"/>
<path d="M46.3855 0.425576C46.9895 0.580251 47.3485 1.06441 47.3485 1.73527C47.3485 2.55624 46.8105 3.11636 45.9464 3.11636C45.2519 3.11636 44.7393 2.73928 44.5782 2.14896C44.2965 1.11475 45.3207 0.153753 46.3855 0.425576Z" fill="#11C4B0"/>
<path d="M57.0399 11.3681L56.2908 10.6991C56.288 10.6991 56.288 10.6963 56.288 10.6963L56.1928 10.6103C56.19 10.6075 56.1853 10.6057 56.1834 10.603C56.1043 10.5517 56.0091 10.5215 55.9045 10.5215C55.7754 10.5215 55.6567 10.5682 55.5681 10.6469C55.5417 10.6771 55.5153 10.7073 55.4871 10.7348L55.4842 10.7375C55.0762 11.1658 54.4279 11.5667 53.4386 11.5667C51.9413 11.5667 50.9415 10.5773 50.9415 9.10473C50.9415 7.62937 51.9403 6.64001 53.4386 6.64001C54.297 6.64001 55.0056 6.96858 55.5182 7.53876L55.5257 7.54609C55.5474 7.57354 55.5709 7.60192 55.5945 7.63212L55.5973 7.63486C55.6878 7.72273 55.814 7.77855 55.9525 7.77855C56.0524 7.77855 56.1457 7.74835 56.2249 7.69984C56.2277 7.6971 56.2296 7.69527 56.2324 7.69527L56.3059 7.63486C56.3087 7.63212 56.3087 7.63212 56.3106 7.63029L57.1718 6.93563C57.2811 6.84502 57.3528 6.70865 57.3528 6.55855C57.3528 6.47527 57.3311 6.39381 57.2934 6.327C57.2906 6.32242 57.2887 6.31784 57.2859 6.3151C57.2642 6.2849 57.2406 6.25469 57.219 6.22449L57.2067 6.21259C56.2767 5.03377 54.9556 4.53314 53.4009 4.53314C51.0763 4.56975 48.7696 6.08263 48.7696 9.10564C48.7696 11.8111 50.6532 13.6754 53.4386 13.6754C55.0527 13.6754 56.3144 13.0896 57.1134 12.0728C57.1276 12.0545 57.1398 12.038 57.1568 12.0197C57.2048 11.9429 57.2331 11.8532 57.2331 11.7552C57.2331 11.6253 57.1832 11.5072 57.0993 11.4221C57.0804 11.4029 57.0588 11.3873 57.0399 11.3681Z" fill="#263041"/>
<path d="M71.6037 4.54596L70.342 4.54871C70.1347 4.54871 69.9604 4.66952 69.8841 4.84066C69.8746 4.85714 69.8671 4.87544 69.8624 4.89192L67.404 10.97L65.0219 4.91297C65.02 4.90839 65.02 4.90382 65.0172 4.90107L64.9889 4.83426C64.9126 4.67409 64.743 4.56335 64.5498 4.55877H64.5263L63.3343 4.56152H63.1128C62.8886 4.61277 62.7218 4.80497 62.7218 5.03835C62.7218 5.08046 62.7265 5.12164 62.7388 5.161C62.7529 5.19852 62.767 5.23513 62.7821 5.26991C62.7849 5.27174 62.7849 5.27448 62.7849 5.27448C64.9503 10.5581 66.0867 13.5134 66.0914 13.7541C66.0914 13.7724 66.1385 13.9976 65.9576 14.3362C65.8238 14.5842 65.527 14.77 65.2914 14.7581C64.8627 14.7362 64.6261 14.6163 64.2879 14.3701C64.2756 14.3609 64.2643 14.3518 64.2502 14.3426C64.171 14.2914 64.0759 14.2593 63.9713 14.2593C63.8158 14.2593 63.6754 14.3289 63.583 14.4378C63.5802 14.4424 63.5783 14.4451 63.5736 14.4497L63.519 14.5375L63.1138 15.1837L63.0469 15.2899C63.0441 15.2944 63.0422 15.299 63.0393 15.3036C63.0158 15.3613 62.9564 15.4244 62.9564 15.4912C62.9564 15.5745 62.9253 15.6642 62.964 15.7319C62.9668 15.7338 62.9913 15.807 62.9941 15.8088C63.0252 15.8482 63.0544 15.904 63.0921 15.9452C63.0921 15.9479 63.1713 16.0056 63.1741 16.0083C63.5887 16.4971 64.318 16.9885 65.478 17.038C65.8869 17.0554 66.4589 16.9528 67.0242 16.5703C67.5811 16.1923 67.8883 15.5745 68.1333 14.9723L72.0683 5.22323C72.0758 5.2095 72.0805 5.19303 72.0852 5.1793C72.1022 5.13262 72.1088 5.08412 72.1088 5.03378C72.1041 4.76287 71.8808 4.54596 71.6037 4.54596Z" fill="#263041"/>
<path d="M61.0342 13.475H59.3569C59.2184 13.475 59.1053 13.3651 59.1053 13.2306V0.248029C59.1053 0.112575 59.2184 0.00366211 59.3569 0.00366211H61.0342C61.1727 0.00366211 61.2858 0.112575 61.2858 0.248029V13.2297C61.2858 13.3651 61.1736 13.475 61.0342 13.475Z" fill="#263041"/>
<path d="M27.5777 13.475H25.891C25.7515 13.475 25.6394 13.3651 25.6394 13.2306V4.96605C25.6394 4.83151 25.7525 4.72168 25.891 4.72168H27.5777C27.7162 4.72168 27.8293 4.83151 27.8293 4.96605V13.2297C27.8293 13.3651 27.7171 13.475 27.5777 13.475Z" fill="#263041"/>
<path d="M46.7794 13.475H45.0927C44.9533 13.475 44.8411 13.3651 44.8411 13.2306V4.96605C44.8411 4.83151 44.9542 4.72168 45.0927 4.72168H46.7794C46.9179 4.72168 47.031 4.83151 47.031 4.96605V13.2297C47.031 13.3651 46.9189 13.475 46.7794 13.475Z" fill="#263041"/>
<path d="M72.8137 13.8383C72.1597 13.8383 71.6273 13.3212 71.6273 12.686C71.6273 12.0509 72.1597 11.5338 72.8137 11.5338C73.4676 11.5338 74 12.0509 74 12.686C74 13.3212 73.4676 13.8383 72.8137 13.8383ZM72.8137 11.7159C72.2634 11.7159 71.8158 12.1506 71.8158 12.6851C71.8158 13.2196 72.2634 13.6543 72.8137 13.6543C73.364 13.6543 73.8116 13.2196 73.8116 12.6851C73.8116 12.1506 73.364 11.7159 72.8137 11.7159Z" fill="#263041"/>
<path d="M73.1416 13.2324L72.9051 12.8865C72.8721 12.8883 72.8467 12.8892 72.8288 12.8892H72.5282V13.2324H72.4198V12.1708H72.8278C72.9644 12.1708 73.07 12.2019 73.1444 12.2632C73.2189 12.3245 73.2565 12.4115 73.2565 12.5241C73.2565 12.6119 73.2349 12.6851 73.1906 12.7446C73.1472 12.8032 73.0841 12.8444 73.0031 12.8673L73.266 13.2334H73.1416V13.2324ZM72.8288 12.795C72.9333 12.795 73.0134 12.7721 73.07 12.7263C73.1265 12.6806 73.1548 12.6137 73.1548 12.5268C73.1548 12.4417 73.1265 12.3767 73.07 12.3328C73.0134 12.2879 72.9333 12.266 72.8288 12.266H72.5282V12.7959H72.8288V12.795Z" fill="#263041"/>
<path d="M73.3564 13.2782H73.1162L72.8806 12.9332C72.8589 12.9341 72.842 12.935 72.8288 12.935H72.5753V13.2782H72.3727V12.125H72.8278C72.9748 12.125 73.0917 12.1598 73.1746 12.2275C73.2594 12.298 73.3027 12.3968 73.3027 12.5231C73.3027 12.6211 73.2773 12.7034 73.2283 12.7702C73.1897 12.8215 73.1388 12.8618 73.0756 12.8883L73.3564 13.2782ZM73.1661 13.1867H73.1755L72.9842 12.9194L73.1661 13.1867ZM72.467 13.1867H72.4811V12.8435H72.8288C72.8457 12.8435 72.8702 12.8425 72.9023 12.8407L72.9296 12.8389L72.9305 12.8398L72.9908 12.8224C73.0624 12.8023 73.1162 12.7675 73.1538 12.7162C73.1915 12.6659 73.2104 12.6009 73.2104 12.5231C73.2104 12.4243 73.1793 12.3501 73.1152 12.298C73.0493 12.244 72.9532 12.2165 72.8288 12.2165H72.4679V13.1867H72.467ZM72.8288 12.8407H72.4811V12.2193H72.8288C72.9437 12.2193 73.0351 12.2449 73.0992 12.2961C73.167 12.3492 73.201 12.427 73.201 12.5259C73.201 12.6265 73.167 12.7053 73.1001 12.7611C73.0351 12.8142 72.9437 12.8407 72.8288 12.8407ZM72.5753 12.7492H72.8288C72.9211 12.7492 72.9918 12.73 73.0389 12.6906C73.0841 12.6531 73.1067 12.5991 73.1067 12.5259C73.1067 12.4545 73.0851 12.4023 73.0398 12.3666C72.9927 12.3291 72.9211 12.3099 72.8288 12.3099H72.5753V12.7492Z" fill="#263041"/>
</svg>
