<svg width="74" height="21" viewBox="0 0 74 21" fill="none" xmlns="http://www.w3.org/2000/svg">
<path d="M2.52816 16.8513C2.77033 17.0517 2.89094 17.3354 2.89094 17.7024C2.89094 18.0832 2.76938 18.3779 2.52816 18.5865C2.28599 18.7952 1.94395 18.8995 1.50013 18.8995H0.534297V20.0216H0.181885V16.5501H1.50108C1.94395 16.5511 2.28694 16.6508 2.52816 16.8513ZM2.27563 18.366C2.46126 18.2149 2.55454 17.998 2.55454 17.7125C2.55454 17.4343 2.4622 17.2228 2.27846 17.0773C2.09471 16.9318 1.82993 16.8586 1.486 16.8586H0.534297V18.592H1.48506C1.82616 18.592 2.09 18.5161 2.27563 18.366Z" fill="#263041"/>
<path d="M5.37564 17.5761C5.58012 17.6869 5.74031 17.8415 5.85621 18.0401C5.97211 18.2387 6.02959 18.4639 6.02959 18.7156C6.02959 18.9709 5.97116 19.1979 5.85621 19.3983C5.74031 19.5988 5.58012 19.7544 5.37564 19.8651C5.17117 19.9759 4.93937 20.0317 4.68024 20.0317C4.42111 20.0317 4.18931 19.9768 3.98484 19.8651C3.78037 19.7544 3.62018 19.5988 3.50428 19.3983C3.38838 19.1979 3.32996 18.9709 3.32996 18.7156C3.32996 18.4639 3.38743 18.2387 3.50428 18.0401C3.62018 17.8415 3.78037 17.6869 3.98484 17.5761C4.18931 17.4654 4.42111 17.4095 4.68024 17.4095C4.93937 17.4095 5.17117 17.4654 5.37564 17.5761ZM4.15916 17.8269C4.00557 17.9129 3.8859 18.0337 3.8011 18.1893C3.71629 18.3449 3.67295 18.5216 3.67295 18.7211C3.67295 18.9233 3.71535 19.1018 3.8011 19.2574C3.8859 19.413 4.00557 19.5338 4.15916 19.6198C4.31275 19.7059 4.48613 19.7489 4.68024 19.7489C4.87435 19.7489 5.04867 19.7059 5.20132 19.6198C5.35491 19.5338 5.47364 19.413 5.55939 19.2574C5.64514 19.1018 5.68754 18.9233 5.68754 18.7211C5.68754 18.5225 5.64514 18.3449 5.55939 18.1893C5.47458 18.0337 5.35491 17.9129 5.20132 17.8269C5.04773 17.7409 4.87435 17.6978 4.68024 17.6978C4.48613 17.6978 4.31275 17.7409 4.15916 17.8269Z" fill="#263041"/>
<path d="M6.26611 17.4196H6.6336L7.45715 19.6894L8.27034 17.4196H8.63312L9.45101 19.6894L10.2689 17.4196H10.627L9.62439 20.0216H9.26727L8.44843 17.8223L7.63053 20.0216H7.27247L6.26611 17.4196Z" fill="#263041"/>
<path d="M13.0958 17.7949C13.3134 18.0511 13.4143 18.3962 13.3973 18.83H11.1631C11.1867 19.1082 11.2932 19.3324 11.4798 19.5027C11.6673 19.6729 11.8991 19.758 12.1752 19.758C12.3457 19.758 12.504 19.7287 12.651 19.6683C12.7971 19.6088 12.9233 19.5246 13.0289 19.4148L13.223 19.6034C13.0929 19.7388 12.9375 19.8441 12.7556 19.9191C12.5728 19.9932 12.373 20.0308 12.1544 20.0308C11.8953 20.0308 11.6654 19.9749 11.4637 19.8642C11.263 19.7535 11.1047 19.5988 10.9907 19.4002C10.8767 19.2016 10.8192 18.9746 10.8192 18.7202C10.8192 18.4685 10.8767 18.2424 10.9907 18.0429C11.1047 17.8425 11.2621 17.6869 11.4637 17.5761C11.6644 17.4654 11.8915 17.4095 12.1441 17.4095C12.5605 17.4095 12.8781 17.5377 13.0958 17.7949ZM13.0911 18.5719C13.0741 18.3001 12.9808 18.0841 12.8121 17.9239C12.6435 17.7637 12.423 17.6832 12.1497 17.6832C11.8802 17.6832 11.655 17.7647 11.475 17.9267C11.2941 18.0886 11.1905 18.3037 11.1631 18.5719H13.0911Z" fill="#263041"/>
<path d="M14.9078 17.5715C15.0727 17.4672 15.2715 17.4132 15.5033 17.4105V17.7235C15.2206 17.7198 14.9926 17.8004 14.8211 17.9642C14.6487 18.128 14.5507 18.3504 14.5271 18.6323V20.0225H14.1851V17.4205H14.5271V18.0264C14.6157 17.8269 14.7429 17.6759 14.9078 17.5715Z" fill="#263041"/>
<path d="M18.1219 17.7949C18.3396 18.0511 18.4404 18.3962 18.4234 18.83H16.1893C16.2128 19.1082 16.3193 19.3324 16.5059 19.5027C16.6934 19.6729 16.9252 19.758 17.2013 19.758C17.3718 19.758 17.5301 19.7287 17.6771 19.6683C17.8232 19.6088 17.9494 19.5246 18.055 19.4148L18.2491 19.6034C18.1191 19.7388 17.9636 19.8441 17.7817 19.9191C17.5989 19.9932 17.3992 20.0308 17.1805 20.0308C16.9214 20.0308 16.6915 19.9749 16.4899 19.8642C16.2892 19.7535 16.1308 19.5988 16.0168 19.4002C15.9028 19.2016 15.8453 18.9746 15.8453 18.7202C15.8453 18.4685 15.9028 18.2424 16.0168 18.0429C16.1308 17.8425 16.2882 17.6869 16.4899 17.5761C16.6906 17.4654 16.9177 17.4095 17.1702 17.4095C17.5867 17.4095 17.9033 17.5377 18.1219 17.7949ZM18.1162 18.5719C18.0993 18.3001 18.006 18.0841 17.8373 17.9239C17.6686 17.7637 17.4482 17.6832 17.1749 17.6832C16.9054 17.6832 16.6802 17.7647 16.5002 17.9267C16.3193 18.0886 16.2157 18.3037 16.1883 18.5719H18.1162Z" fill="#263041"/>
<path d="M21.6489 16.3369V20.0216H21.3069V19.4258C21.2041 19.6217 21.0609 19.7727 20.8772 19.8797C20.6934 19.9877 20.4786 20.0408 20.2327 20.0408C19.9801 20.0408 19.7559 19.985 19.558 19.8724C19.3601 19.7599 19.2065 19.6024 19.0982 19.4011C18.9889 19.1988 18.9342 18.9709 18.9342 18.7156C18.9342 18.4602 18.9898 18.2342 19.1 18.0356C19.2112 17.8369 19.3639 17.6814 19.5599 17.5688C19.7559 17.4562 19.9782 17.3995 20.227 17.3995C20.472 17.3995 20.6878 17.4544 20.8734 17.5633C21.059 17.6722 21.2032 17.8251 21.3059 18.02V16.3369H21.6489ZM20.8159 19.6217C20.9695 19.5338 21.0892 19.4121 21.1759 19.2565C21.2626 19.1009 21.3059 18.9233 21.3059 18.7247C21.3059 18.5261 21.2626 18.3476 21.1759 18.1911C21.0892 18.0337 20.9686 17.9102 20.8159 17.8214C20.6623 17.7317 20.489 17.6878 20.2948 17.6878C20.1007 17.6878 19.9264 17.7326 19.7738 17.8214C19.6211 17.9102 19.4996 18.0337 19.411 18.1911C19.3224 18.3486 19.2781 18.5261 19.2781 18.7247C19.2781 18.9233 19.3215 19.1009 19.4082 19.2565C19.4949 19.4121 19.6164 19.5338 19.7709 19.6217C19.9264 19.7095 20.1007 19.7534 20.2948 19.7534C20.489 19.7534 20.6623 19.7095 20.8159 19.6217Z" fill="#263041"/>
<path d="M26.3292 17.5761C26.5252 17.6869 26.6778 17.8424 26.7871 18.0429C26.8964 18.2433 26.9511 18.4712 26.9511 18.7256C26.9511 18.9773 26.8964 19.2025 26.7871 19.4011C26.6778 19.5997 26.5261 19.7544 26.332 19.8651C26.1379 19.9758 25.9164 20.0317 25.6677 20.0317C25.4227 20.0317 25.2078 19.9777 25.0232 19.8706C24.8394 19.7626 24.6962 19.6134 24.5935 19.4212V20.0225H24.2505V16.3369H24.5935V18.02C24.6924 17.8278 24.8347 17.6777 25.0203 17.5706C25.206 17.4626 25.4199 17.4095 25.662 17.4095C25.9108 17.4095 26.1332 17.4654 26.3292 17.5761ZM26.1171 19.6125C26.2707 19.5246 26.3895 19.4029 26.4752 19.2473C26.56 19.0917 26.6034 18.9151 26.6034 18.7165C26.6034 18.5215 26.561 18.3458 26.4752 18.1902C26.3904 18.0346 26.2707 17.9129 26.1171 17.8251C25.9636 17.7372 25.7911 17.6933 25.6008 17.6933C25.4067 17.6933 25.2333 17.7372 25.0816 17.8251C24.9299 17.9129 24.8102 18.0346 24.7235 18.1902C24.6368 18.3458 24.5935 18.5215 24.5935 18.7165C24.5935 18.9151 24.6359 19.0926 24.7216 19.2473C24.8064 19.4029 24.9261 19.5246 25.0797 19.6125C25.2333 19.7004 25.4067 19.7443 25.6017 19.7443C25.7921 19.7434 25.9636 19.6994 26.1171 19.6125Z" fill="#263041"/>
<path d="M28.1336 20.8462C27.9989 20.9487 27.8443 21 27.671 21C27.4627 21 27.279 20.9405 27.1188 20.8215L27.2724 20.5634C27.392 20.6431 27.5192 20.6824 27.6559 20.6824C27.7652 20.6824 27.8641 20.6476 27.9527 20.5781C28.0413 20.5085 28.1148 20.4078 28.1722 20.2751L28.2844 20.007L27.1753 17.4196H27.5381L28.4587 19.6546L29.3435 17.4196H29.6959L28.4587 20.3941C28.3767 20.5927 28.2684 20.7437 28.1336 20.8462Z" fill="#263041"/>
<path d="M57.3471 20.0893C56.9381 20.0893 56.6055 19.7662 56.6055 19.369C56.6055 18.9718 56.9381 18.6487 57.3471 18.6487C57.756 18.6487 58.0887 18.9718 58.0887 19.369C58.0887 19.7662 57.756 20.0893 57.3471 20.0893ZM57.3471 18.7686C57.006 18.7686 56.728 19.0386 56.728 19.3699C56.728 19.7013 57.006 19.9713 57.3471 19.9713C57.6882 19.9713 57.9662 19.7013 57.9662 19.3699C57.9662 19.0377 57.6882 18.7686 57.3471 18.7686Z" fill="#11C4B0"/>
<path d="M57.4894 19.7104L57.3811 19.521H57.3669H57.2246V19.7104H57.071V19.0487H57.3669C57.4555 19.0487 57.5243 19.0689 57.5733 19.1091C57.6223 19.1494 57.6468 19.2062 57.6468 19.2785C57.6468 19.3297 57.6355 19.3736 57.6138 19.4093C57.5921 19.4459 57.5601 19.4734 57.5186 19.4917L57.6637 19.7104H57.4894ZM57.2237 19.3965H57.366C57.4084 19.3965 57.4414 19.3874 57.4649 19.3682C57.4875 19.3489 57.4998 19.3206 57.4998 19.283C57.4998 19.2464 57.4885 19.219 57.4649 19.2007C57.4423 19.1824 57.4084 19.1732 57.366 19.1732H57.2237V19.3965Z" fill="#11C4B0"/>
<path d="M33.6327 16.8824C33.4537 16.833 33.285 16.8082 33.1277 16.8082C32.8751 16.8082 32.6725 16.8568 32.5199 16.9538C32.3672 17.0508 32.2909 17.1835 32.2909 17.3501C32.2909 17.4965 32.3333 17.6155 32.4172 17.7079C32.501 17.8004 32.6047 17.8727 32.7272 17.9248C32.8497 17.9779 33.0183 18.0365 33.2322 18.1015C33.481 18.1729 33.6817 18.2433 33.8344 18.3138C33.987 18.3834 34.117 18.4849 34.2235 18.6177C34.33 18.7504 34.3837 18.9261 34.3837 19.1439C34.3837 19.3352 34.3281 19.5036 34.2179 19.65C34.1076 19.7965 33.9521 19.91 33.7524 19.9896C33.5526 20.0701 33.3227 20.1095 33.0626 20.1095C32.8063 20.1095 32.5566 20.0601 32.3126 19.9612C32.0685 19.8624 31.8593 19.7315 31.6841 19.5677L31.8528 19.2766C32.0176 19.4331 32.2089 19.5558 32.4266 19.6445C32.6443 19.7333 32.8582 19.7773 33.0683 19.7773C33.3491 19.7773 33.5715 19.7223 33.7364 19.6107C33.9013 19.4999 33.9832 19.3508 33.9832 19.1631C33.9832 19.013 33.9408 18.8904 33.857 18.7952C33.7731 18.7 33.6695 18.6268 33.546 18.5756C33.4235 18.5243 33.2511 18.4648 33.0306 18.3971C32.7818 18.322 32.5811 18.2516 32.4304 18.1848C32.2796 18.1179 32.1515 18.0191 32.0459 17.8882C31.9404 17.7573 31.8886 17.5862 31.8886 17.3748C31.8886 17.1945 31.9413 17.0352 32.0459 16.8989C32.1515 16.7625 32.2984 16.6581 32.4878 16.5849C32.6772 16.5117 32.8968 16.4751 33.1456 16.4751C33.3453 16.4751 33.546 16.5044 33.7477 16.562C33.9493 16.6197 34.1274 16.6966 34.2819 16.7918L34.1236 17.0938C33.9766 17.0023 33.8117 16.9318 33.6327 16.8824Z" fill="#11C4B0"/>
<path d="M37.1164 17.567C37.3265 17.6814 37.4914 17.8406 37.6111 18.0447C37.7307 18.2488 37.7901 18.4813 37.7901 18.7403C37.7901 19.003 37.7307 19.2373 37.6111 19.4432C37.4914 19.6491 37.3265 19.8093 37.1164 19.9237C36.9062 20.0381 36.6669 20.0948 36.4002 20.0948C36.1336 20.0948 35.8952 20.0381 35.6841 19.9237C35.474 19.8093 35.3091 19.6491 35.1894 19.4432C35.0697 19.2373 35.0104 19.003 35.0104 18.7403C35.0104 18.4813 35.0697 18.2497 35.1894 18.0447C35.3091 17.8406 35.474 17.6814 35.6841 17.567C35.8942 17.4526 36.1336 17.3958 36.4002 17.3958C36.6678 17.3958 36.9062 17.4535 37.1164 17.567ZM35.8641 17.8251C35.7058 17.9138 35.5833 18.0383 35.4957 18.1985C35.408 18.3586 35.3637 18.5408 35.3637 18.7458C35.3637 18.9535 35.408 19.1375 35.4957 19.2977C35.5833 19.4578 35.7058 19.5823 35.8641 19.6711C36.0224 19.7599 36.2005 19.8038 36.4012 19.8038C36.6009 19.8038 36.78 19.7599 36.9383 19.6711C37.0956 19.5823 37.2191 19.4578 37.3067 19.2977C37.3943 19.1375 37.4386 18.9535 37.4386 18.7458C37.4386 18.5417 37.3943 18.3586 37.3067 18.1985C37.2191 18.0383 37.0966 17.9138 36.9383 17.8251C36.78 17.7363 36.6009 17.6923 36.4012 17.6923C36.2014 17.6923 36.0224 17.7363 35.8641 17.8251Z" fill="#11C4B0"/>
<path d="M38.9906 16.292H38.6382V20.0847H38.9906V16.292Z" fill="#11C4B0"/>
<path d="M41.8532 20.0848L41.8476 19.6354C41.7392 19.7919 41.5969 19.909 41.4217 19.9859C41.2464 20.0628 41.0448 20.1012 40.8167 20.1012C40.6311 20.1012 40.4672 20.0665 40.3249 19.996C40.1826 19.9264 40.0733 19.8303 39.996 19.7068C39.9188 19.5841 39.8801 19.4459 39.8801 19.2931C39.8801 19.0615 39.9725 18.8794 40.1562 18.7458C40.34 18.6131 40.5934 18.5463 40.9166 18.5463H41.8429V18.3422C41.8429 18.1307 41.7779 17.9669 41.6478 17.8516C41.5178 17.7363 41.3284 17.6777 41.0796 17.6777C40.7847 17.6777 40.4879 17.7848 40.1901 17.9999L40.0328 17.7647C40.2184 17.6384 40.3955 17.5459 40.5642 17.4864C40.7329 17.4269 40.9251 17.3967 41.1428 17.3967C41.4763 17.3967 41.7336 17.4773 41.9164 17.6393C42.0982 17.8013 42.1915 18.0255 42.1953 18.312L42.2 20.0857H41.8532V20.0848ZM41.5037 19.6482C41.6742 19.5375 41.7882 19.3819 41.8485 19.1805V18.8126H40.959C40.7169 18.8126 40.5331 18.8519 40.4069 18.9297C40.2806 19.0085 40.2175 19.1256 40.2175 19.2821C40.2175 19.4423 40.2778 19.5713 40.3993 19.6683C40.5209 19.7653 40.6811 19.8139 40.8808 19.8139C41.1249 19.8139 41.3331 19.7589 41.5037 19.6482Z" fill="#11C4B0"/>
<path d="M42.5533 16.5117H42.9425L44.2532 19.6958L45.5583 16.5117H45.9427L44.4323 20.0848H44.0535L42.5533 16.5117Z" fill="#11C4B0"/>
<path d="M46.9217 16.4632C46.9669 16.509 46.9905 16.5666 46.9905 16.6343C46.9905 16.7021 46.9669 16.7606 46.9189 16.8082C46.8717 16.8558 46.8143 16.8796 46.7474 16.8796C46.6767 16.8796 46.6183 16.8558 46.5712 16.8082C46.524 16.7606 46.5005 16.703 46.5005 16.6343C46.5005 16.5657 46.524 16.509 46.5712 16.4632C46.6183 16.4174 46.6767 16.3946 46.7474 16.3946C46.818 16.3936 46.8765 16.4174 46.9217 16.4632ZM46.5693 17.4059H46.9217V20.0848H46.5693V17.4059Z" fill="#11C4B0"/>
<path d="M50.0737 17.7921C50.2979 18.0566 50.4016 18.4117 50.3837 18.8584H48.0846C48.1091 19.1448 48.2184 19.3755 48.4106 19.5512C48.6037 19.7269 48.8421 19.8148 49.1267 19.8148C49.302 19.8148 49.465 19.7846 49.6157 19.7223C49.7665 19.661 49.8965 19.5741 50.0049 19.4615L50.2047 19.6555C50.0709 19.7956 49.9107 19.9036 49.7232 19.9804C49.5356 20.0573 49.3293 20.0958 49.105 20.0958C48.8384 20.0958 48.6019 20.039 48.3946 19.9246C48.1873 19.8102 48.0252 19.651 47.9074 19.4469C47.7896 19.2428 47.7312 19.0094 47.7312 18.7467C47.7312 18.4877 47.7896 18.2552 47.9074 18.0493C48.0252 17.8434 48.1873 17.6832 48.3946 17.5688C48.6019 17.4544 48.8346 17.3977 49.0947 17.3977C49.5234 17.3958 49.8494 17.5285 50.0737 17.7921ZM50.069 18.592C50.0511 18.3129 49.9559 18.0905 49.7816 17.9248C49.6082 17.7592 49.3811 17.6768 49.1003 17.6768C48.8233 17.6768 48.5915 17.7601 48.4059 17.9276C48.2202 18.0942 48.1128 18.3166 48.0846 18.592H50.069Z" fill="#11C4B0"/>
<path d="M50.6165 17.4059H50.9953L51.9111 19.7425L52.8157 17.4059H53.1842L52.0902 20.0848H51.7161L50.6165 17.4059Z" fill="#11C4B0"/>
<path d="M55.7264 17.7921C55.9507 18.0566 56.0543 18.4117 56.0364 18.8584H53.7363C53.7608 19.1448 53.8701 19.3755 54.0623 19.5512C54.2555 19.7269 54.4939 19.8148 54.7785 19.8148C54.9537 19.8148 55.1168 19.7846 55.2675 19.7223C55.4183 19.661 55.5483 19.5741 55.6567 19.4615L55.8565 19.6555C55.7227 19.7956 55.5625 19.9036 55.3749 19.9804C55.1874 20.0573 54.9811 20.0958 54.7568 20.0958C54.4901 20.0958 54.2536 20.039 54.0463 19.9246C53.839 19.8102 53.6769 19.651 53.5591 19.4469C53.4414 19.2428 53.3829 19.0094 53.3829 18.7467C53.3829 18.4877 53.4414 18.2552 53.5591 18.0493C53.6769 17.8434 53.839 17.6832 54.0463 17.5688C54.2536 17.4544 54.4864 17.3977 54.7464 17.3977C55.1752 17.3958 55.5022 17.5285 55.7264 17.7921ZM55.7217 18.592C55.7038 18.3129 55.6086 18.0905 55.4343 17.9248C55.2609 17.7592 55.0338 17.6768 54.753 17.6768C54.476 17.6768 54.2442 17.7601 54.0586 17.9276C53.8729 18.0942 53.7655 18.3166 53.7372 18.592H55.7217Z" fill="#11C4B0"/>
<path d="M23.0641 13.475H21.3868C21.2483 13.475 21.1353 13.3651 21.1353 13.2306V0.248029C21.1353 0.112575 21.2483 0.00366211 21.3868 0.00366211H23.0641C23.2026 0.00366211 23.3157 0.112575 23.3157 0.248029V13.2297C23.3157 13.3651 23.2026 13.475 23.0641 13.475Z" fill="#263041"/>
<path d="M0 0.462192C0 0.206842 0.212955 0 0.475851 0H1.71401C1.9769 0 2.18986 0.206842 2.18986 0.462192V5.0411C2.18986 5.27814 2.47725 5.40445 2.66005 5.24703C3.20846 4.77385 3.95475 4.49654 4.89797 4.49654C6.93423 4.49654 8.33634 5.93345 8.33634 8.41464V13.0082C8.33634 13.2635 8.12339 13.4704 7.86049 13.4704H6.62328C6.36038 13.4704 6.14743 13.2635 6.14743 13.0082V8.80636C6.14743 7.33192 5.39832 6.64184 4.34202 6.64184C2.86264 6.64184 2.24828 7.94788 2.1908 9.19808V13.0082C2.1908 13.2635 1.97784 13.4704 1.71495 13.4704H0.475851C0.212955 13.4704 0 13.2635 0 13.0082V0.462192Z" fill="#263041"/>
<path d="M14.6948 4.49652C17.4991 4.49652 19.4015 6.34346 19.4015 9.06719C19.4015 11.7909 17.5 13.6571 14.6948 13.6571C11.8906 13.6571 10.0079 11.7909 10.0079 9.06719C10.0079 6.34346 11.8906 4.49652 14.6948 4.49652ZM14.6948 11.5493C16.2128 11.5493 17.2117 10.5416 17.2117 9.08641C17.2117 7.59367 16.2128 6.62352 14.6948 6.62352C13.1966 6.62352 12.1978 7.59367 12.1978 9.08641C12.1978 10.5416 13.1966 11.5493 14.6948 11.5493Z" fill="#263041"/>
<path d="M26.7381 0.373413C27.6021 0.373413 28.1402 0.914315 28.1402 1.73528C28.1402 2.55624 27.6021 3.11637 26.7381 3.11637C25.8928 3.11637 25.3162 2.55624 25.3162 1.73528C25.3171 0.914315 25.8928 0.373413 26.7381 0.373413Z" fill="#11C4B0"/>
<path d="M33.595 8.1721C32.4436 7.91034 31.8848 7.68794 31.8659 7.18273C31.8659 6.81023 32.4049 6.49265 33.2106 6.49265C33.3246 6.49265 33.4226 6.49265 33.5375 6.51095C34.2433 6.58051 34.7653 6.80932 35.097 6.98138H35.0998C35.1686 7.02074 35.2525 7.04179 35.3382 7.04179C35.5097 7.04179 35.6624 6.95576 35.7528 6.82671C35.7717 6.80108 35.7858 6.77362 35.7981 6.74525L36.2249 5.95998C36.2419 5.93253 36.256 5.90415 36.2702 5.8767C36.2937 5.81904 36.3078 5.75406 36.3078 5.68633C36.3078 5.54264 36.2438 5.41084 36.1411 5.32024C36.1005 5.29461 36.0525 5.26715 36.0025 5.23695C36.0007 5.2342 35.995 5.2342 35.9931 5.2342C35.4871 4.94499 34.5269 4.52765 33.3057 4.51392C31.2695 4.49561 29.6186 5.50328 29.6949 7.25687C29.7326 8.60043 30.6372 9.3857 32.4615 9.86985C33.7109 10.224 34.5364 10.43 34.5364 10.9883C34.5364 11.6417 33.3057 11.6784 32.8648 11.6784C32.061 11.6207 31.4033 11.3516 30.9613 11.132C30.935 11.1155 30.9067 11.1018 30.8756 11.088C30.8162 11.0651 30.7493 11.0505 30.6796 11.0505C30.5053 11.0505 30.3555 11.1365 30.2622 11.2638C30.2622 11.2665 30.2622 11.2665 30.2603 11.2683L30.2169 11.347C30.2169 11.3516 30.2141 11.3544 30.2122 11.3589L29.7995 12.1534C29.7995 12.1561 29.7976 12.1607 29.792 12.1625L29.7543 12.2366C29.7543 12.2394 29.7515 12.2412 29.7515 12.2431C29.7279 12.2989 29.7157 12.3611 29.7157 12.4261C29.7157 12.5863 29.7967 12.73 29.9182 12.8196C29.9371 12.8315 29.9569 12.8407 29.9776 12.8544C29.9917 12.8617 30.0059 12.8682 30.021 12.8755C30.5929 13.1885 31.7472 13.6379 33.1898 13.6379C35.3222 13.6562 36.762 12.5744 36.7243 10.84C36.6687 9.29051 35.5936 8.63795 33.595 8.1721Z" fill="#263041"/>
<path d="M43.5587 12.6311C43.5512 12.6101 43.5418 12.589 43.5352 12.5689L43.1677 11.6491C43.1648 11.6463 43.1648 11.6445 43.1648 11.6418L43.1385 11.5795C43.0574 11.4148 42.8859 11.3013 42.6852 11.3013C42.6164 11.3013 42.5495 11.315 42.4892 11.3388C42.461 11.3525 42.4318 11.3663 42.4035 11.3827C42.2678 11.445 42.1123 11.4944 41.9691 11.4944C41.3726 11.4944 41.22 11.0469 41.22 9.53489V6.95577C41.22 6.80292 41.3463 6.68028 41.5036 6.68028H42.7795C43.0414 6.68028 43.2562 6.47161 43.2562 6.21718V5.20493C43.2562 4.95233 43.0584 4.7464 42.8058 4.72077H41.5036C41.3463 4.72077 41.22 4.59813 41.22 4.44529V2.27253C41.22 2.01809 41.008 1.80942 40.7432 1.80942H39.5654C39.3081 1.80942 39.0961 1.99979 39.0669 2.24507V2.24964V2.34666L39.0528 4.44712C39.0509 4.59813 38.9237 4.72077 38.7663 4.72077H38.0982C37.8457 4.7464 37.6478 4.95233 37.6478 5.20493V6.21718C37.6478 6.47161 37.8598 6.68028 38.1227 6.68028H38.7663C38.9218 6.68028 39.0499 6.80292 39.0499 6.95577V10.6158C39.0311 12.5195 39.9705 13.6388 41.5847 13.6388C42.15 13.6388 42.7653 13.5088 43.2685 13.2196C43.2855 13.215 43.2996 13.2077 43.3118 13.1986C43.3401 13.1821 43.3665 13.1665 43.3929 13.1473C43.3929 13.1446 43.3957 13.1446 43.3957 13.1446C43.5078 13.054 43.5766 12.9203 43.5766 12.7693C43.5776 12.7208 43.571 12.6751 43.5587 12.6311Z" fill="#263041"/>
<path d="M46.3855 0.425576C46.9895 0.580251 47.3485 1.06441 47.3485 1.73527C47.3485 2.55624 46.8105 3.11636 45.9464 3.11636C45.2519 3.11636 44.7393 2.73928 44.5782 2.14896C44.2965 1.11475 45.3207 0.153753 46.3855 0.425576Z" fill="#11C4B0"/>
<path d="M57.0399 11.3681L56.2908 10.6991C56.2879 10.6991 56.2879 10.6963 56.2879 10.6963L56.1928 10.6103C56.1899 10.6075 56.1852 10.6057 56.1833 10.603C56.1042 10.5517 56.009 10.5215 55.9044 10.5215C55.7753 10.5215 55.6566 10.5682 55.568 10.6469C55.5416 10.6771 55.5153 10.7073 55.487 10.7348L55.4842 10.7375C55.0762 11.1658 54.4279 11.5667 53.4385 11.5667C51.9412 11.5667 50.9415 10.5773 50.9415 9.10473C50.9415 7.62937 51.9403 6.64001 53.4385 6.64001C54.2969 6.64001 55.0055 6.96858 55.5181 7.53876L55.5256 7.54609C55.5473 7.57354 55.5709 7.60192 55.5944 7.63212L55.5972 7.63486C55.6877 7.72273 55.814 7.77855 55.9525 7.77855C56.0524 7.77855 56.1456 7.74835 56.2248 7.69984C56.2276 7.6971 56.2295 7.69527 56.2323 7.69527L56.3058 7.63486C56.3087 7.63212 56.3087 7.63212 56.3105 7.63029L57.1718 6.93563C57.2811 6.84502 57.3527 6.70865 57.3527 6.55855C57.3527 6.47527 57.331 6.39381 57.2933 6.327C57.2905 6.32242 57.2886 6.31784 57.2858 6.3151C57.2641 6.2849 57.2406 6.25469 57.2189 6.22449L57.2066 6.21259C56.2766 5.03377 54.9556 4.53314 53.4008 4.53314C51.0762 4.56975 48.7695 6.08263 48.7695 9.10564C48.7695 11.8111 50.6531 13.6754 53.4385 13.6754C55.0526 13.6754 56.3143 13.0896 57.1134 12.0728C57.1275 12.0545 57.1397 12.038 57.1567 12.0197C57.2048 11.9429 57.233 11.8532 57.233 11.7552C57.233 11.6253 57.1831 11.5072 57.0992 11.4221C57.0804 11.4029 57.0587 11.3873 57.0399 11.3681Z" fill="#263041"/>
<path d="M71.6037 4.54596L70.342 4.54871C70.1347 4.54871 69.9604 4.66952 69.8841 4.84066C69.8746 4.85714 69.8671 4.87544 69.8624 4.89192L67.404 10.97L65.0219 4.91297C65.02 4.90839 65.02 4.90382 65.0172 4.90107L64.9889 4.83426C64.9126 4.67409 64.743 4.56335 64.5498 4.55877H64.5263L63.3343 4.56152H63.1128C62.8886 4.61277 62.7218 4.80497 62.7218 5.03835C62.7218 5.08046 62.7265 5.12164 62.7388 5.161C62.7529 5.19852 62.767 5.23513 62.7821 5.26991C62.7849 5.27174 62.7849 5.27448 62.7849 5.27448C64.9503 10.5581 66.0867 13.5134 66.0914 13.7541C66.0914 13.7724 66.1385 13.9976 65.9576 14.3362C65.8238 14.5842 65.527 14.77 65.2914 14.7581C64.8627 14.7362 64.6261 14.6163 64.2879 14.3701C64.2756 14.3609 64.2643 14.3518 64.2502 14.3426C64.171 14.2914 64.0759 14.2593 63.9713 14.2593C63.8158 14.2593 63.6754 14.3289 63.583 14.4378C63.5802 14.4424 63.5783 14.4451 63.5736 14.4497L63.519 14.5375L63.1138 15.1837L63.0469 15.2899C63.0441 15.2944 63.0422 15.299 63.0393 15.3036C63.0158 15.3613 62.9564 15.4244 62.9564 15.4912C62.9564 15.5745 62.9253 15.6642 62.964 15.7319C62.9668 15.7338 62.9913 15.807 62.9941 15.8088C63.0252 15.8482 63.0544 15.904 63.0921 15.9452C63.0921 15.9479 63.1713 16.0056 63.1741 16.0083C63.5887 16.4971 64.318 16.9885 65.478 17.038C65.8869 17.0554 66.4589 16.9528 67.0242 16.5703C67.5811 16.1923 67.8883 15.5745 68.1333 14.9723L72.0683 5.22323C72.0758 5.2095 72.0805 5.19303 72.0852 5.1793C72.1022 5.13262 72.1088 5.08412 72.1088 5.03378C72.1041 4.76287 71.8808 4.54596 71.6037 4.54596Z" fill="#263041"/>
<path d="M61.0342 13.475H59.3569C59.2184 13.475 59.1053 13.3651 59.1053 13.2306V0.248029C59.1053 0.112575 59.2184 0.00366211 59.3569 0.00366211H61.0342C61.1727 0.00366211 61.2858 0.112575 61.2858 0.248029V13.2297C61.2858 13.3651 61.1736 13.475 61.0342 13.475Z" fill="#263041"/>
<path d="M27.5777 13.475H25.891C25.7515 13.475 25.6394 13.3651 25.6394 13.2306V4.96605C25.6394 4.83151 25.7525 4.72168 25.891 4.72168H27.5777C27.7162 4.72168 27.8293 4.83151 27.8293 4.96605V13.2297C27.8293 13.3651 27.7171 13.475 27.5777 13.475Z" fill="#263041"/>
<path d="M46.7795 13.475H45.0928C44.9533 13.475 44.8412 13.3651 44.8412 13.2306V4.96605C44.8412 4.83151 44.9543 4.72168 45.0928 4.72168H46.7795C46.918 4.72168 47.031 4.83151 47.031 4.96605V13.2297C47.031 13.3651 46.9189 13.475 46.7795 13.475Z" fill="#263041"/>
<path d="M23.0641 13.475H21.3868C21.2483 13.475 21.1353 13.3651 21.1353 13.2306V0.248029C21.1353 0.112575 21.2483 0.00366211 21.3868 0.00366211H23.0641C23.2026 0.00366211 23.3157 0.112575 23.3157 0.248029V13.2297C23.3157 13.3651 23.2026 13.475 23.0641 13.475Z" fill="#263041"/>
<path d="M0 0.462192C0 0.206842 0.212955 0 0.475851 0H1.71401C1.9769 0 2.18986 0.206842 2.18986 0.462192V5.0411C2.18986 5.27814 2.47725 5.40445 2.66005 5.24703C3.20846 4.77385 3.95475 4.49654 4.89797 4.49654C6.93423 4.49654 8.33634 5.93345 8.33634 8.41464V13.0082C8.33634 13.2635 8.12339 13.4704 7.86049 13.4704H6.62328C6.36038 13.4704 6.14743 13.2635 6.14743 13.0082V8.80636C6.14743 7.33192 5.39832 6.64184 4.34202 6.64184C2.86264 6.64184 2.24828 7.94788 2.1908 9.19808V13.0082C2.1908 13.2635 1.97784 13.4704 1.71495 13.4704H0.475851C0.212955 13.4704 0 13.2635 0 13.0082V0.462192Z" fill="#263041"/>
<path d="M14.6948 4.49652C17.4991 4.49652 19.4015 6.34346 19.4015 9.06719C19.4015 11.7909 17.5 13.6571 14.6948 13.6571C11.8906 13.6571 10.0079 11.7909 10.0079 9.06719C10.0079 6.34346 11.8906 4.49652 14.6948 4.49652ZM14.6948 11.5493C16.2128 11.5493 17.2117 10.5416 17.2117 9.08641C17.2117 7.59367 16.2128 6.62352 14.6948 6.62352C13.1966 6.62352 12.1978 7.59367 12.1978 9.08641C12.1978 10.5416 13.1966 11.5493 14.6948 11.5493Z" fill="#263041"/>
<path d="M26.7381 0.373413C27.6021 0.373413 28.1402 0.914315 28.1402 1.73528C28.1402 2.55624 27.6021 3.11637 26.7381 3.11637C25.8928 3.11637 25.3162 2.55624 25.3162 1.73528C25.3171 0.914315 25.8928 0.373413 26.7381 0.373413Z" fill="#11C4B0"/>
<path d="M33.595 8.1721C32.4436 7.91034 31.8848 7.68794 31.8659 7.18273C31.8659 6.81023 32.4049 6.49265 33.2106 6.49265C33.3246 6.49265 33.4226 6.49265 33.5375 6.51095C34.2433 6.58051 34.7653 6.80932 35.097 6.98138H35.0998C35.1686 7.02074 35.2525 7.04179 35.3382 7.04179C35.5097 7.04179 35.6624 6.95576 35.7528 6.82671C35.7717 6.80108 35.7858 6.77362 35.7981 6.74525L36.2249 5.95998C36.2419 5.93253 36.256 5.90415 36.2702 5.8767C36.2937 5.81904 36.3078 5.75406 36.3078 5.68633C36.3078 5.54264 36.2438 5.41084 36.1411 5.32024C36.1005 5.29461 36.0525 5.26715 36.0025 5.23695C36.0007 5.2342 35.995 5.2342 35.9931 5.2342C35.4871 4.94499 34.5269 4.52765 33.3057 4.51392C31.2695 4.49561 29.6186 5.50328 29.6949 7.25687C29.7326 8.60043 30.6372 9.3857 32.4615 9.86985C33.7109 10.224 34.5364 10.43 34.5364 10.9883C34.5364 11.6417 33.3057 11.6784 32.8648 11.6784C32.061 11.6207 31.4033 11.3516 30.9613 11.132C30.935 11.1155 30.9067 11.1018 30.8756 11.088C30.8162 11.0651 30.7493 11.0505 30.6796 11.0505C30.5053 11.0505 30.3555 11.1365 30.2622 11.2638C30.2622 11.2665 30.2622 11.2665 30.2603 11.2683L30.2169 11.347C30.2169 11.3516 30.2141 11.3544 30.2122 11.3589L29.7995 12.1534C29.7995 12.1561 29.7976 12.1607 29.792 12.1625L29.7543 12.2366C29.7543 12.2394 29.7515 12.2412 29.7515 12.2431C29.7279 12.2989 29.7157 12.3611 29.7157 12.4261C29.7157 12.5863 29.7967 12.73 29.9182 12.8196C29.9371 12.8315 29.9569 12.8407 29.9776 12.8544C29.9917 12.8617 30.0059 12.8682 30.021 12.8755C30.5929 13.1885 31.7472 13.6379 33.1898 13.6379C35.3222 13.6562 36.762 12.5744 36.7243 10.84C36.6687 9.29051 35.5936 8.63795 33.595 8.1721Z" fill="#263041"/>
<path d="M43.5587 12.6311C43.5512 12.6101 43.5418 12.589 43.5352 12.5689L43.1677 11.6491C43.1648 11.6463 43.1648 11.6445 43.1648 11.6418L43.1385 11.5795C43.0574 11.4148 42.8859 11.3013 42.6852 11.3013C42.6164 11.3013 42.5495 11.315 42.4892 11.3388C42.461 11.3525 42.4318 11.3663 42.4035 11.3827C42.2678 11.445 42.1123 11.4944 41.9691 11.4944C41.3726 11.4944 41.22 11.0469 41.22 9.53489V6.95577C41.22 6.80292 41.3463 6.68028 41.5036 6.68028H42.7795C43.0414 6.68028 43.2562 6.47161 43.2562 6.21718V5.20493C43.2562 4.95233 43.0584 4.7464 42.8058 4.72077H41.5036C41.3463 4.72077 41.22 4.59813 41.22 4.44529V2.27253C41.22 2.01809 41.008 1.80942 40.7432 1.80942H39.5654C39.3081 1.80942 39.0961 1.99979 39.0669 2.24507V2.24964V2.34666L39.0528 4.44712C39.0509 4.59813 38.9237 4.72077 38.7663 4.72077H38.0982C37.8457 4.7464 37.6478 4.95233 37.6478 5.20493V6.21718C37.6478 6.47161 37.8598 6.68028 38.1227 6.68028H38.7663C38.9218 6.68028 39.0499 6.80292 39.0499 6.95577V10.6158C39.0311 12.5195 39.9705 13.6388 41.5847 13.6388C42.15 13.6388 42.7653 13.5088 43.2685 13.2196C43.2855 13.215 43.2996 13.2077 43.3118 13.1986C43.3401 13.1821 43.3665 13.1665 43.3929 13.1473C43.3929 13.1446 43.3957 13.1446 43.3957 13.1446C43.5078 13.054 43.5766 12.9203 43.5766 12.7693C43.5776 12.7208 43.571 12.6751 43.5587 12.6311Z" fill="#263041"/>
<path d="M46.3855 0.425576C46.9895 0.580251 47.3485 1.06441 47.3485 1.73527C47.3485 2.55624 46.8105 3.11636 45.9464 3.11636C45.2519 3.11636 44.7393 2.73928 44.5782 2.14896C44.2965 1.11475 45.3207 0.153753 46.3855 0.425576Z" fill="#11C4B0"/>
<path d="M57.0399 11.3681L56.2908 10.6991C56.2879 10.6991 56.2879 10.6963 56.2879 10.6963L56.1928 10.6103C56.1899 10.6075 56.1852 10.6057 56.1833 10.603C56.1042 10.5517 56.009 10.5215 55.9044 10.5215C55.7753 10.5215 55.6566 10.5682 55.568 10.6469C55.5416 10.6771 55.5153 10.7073 55.487 10.7348L55.4842 10.7375C55.0762 11.1658 54.4279 11.5667 53.4385 11.5667C51.9412 11.5667 50.9415 10.5773 50.9415 9.10473C50.9415 7.62937 51.9403 6.64001 53.4385 6.64001C54.2969 6.64001 55.0055 6.96858 55.5181 7.53876L55.5256 7.54609C55.5473 7.57354 55.5709 7.60192 55.5944 7.63212L55.5972 7.63486C55.6877 7.72273 55.814 7.77855 55.9525 7.77855C56.0524 7.77855 56.1456 7.74835 56.2248 7.69984C56.2276 7.6971 56.2295 7.69527 56.2323 7.69527L56.3058 7.63486C56.3087 7.63212 56.3087 7.63212 56.3105 7.63029L57.1718 6.93563C57.2811 6.84502 57.3527 6.70865 57.3527 6.55855C57.3527 6.47527 57.331 6.39381 57.2933 6.327C57.2905 6.32242 57.2886 6.31784 57.2858 6.3151C57.2641 6.2849 57.2406 6.25469 57.2189 6.22449L57.2066 6.21259C56.2766 5.03377 54.9556 4.53314 53.4008 4.53314C51.0762 4.56975 48.7695 6.08263 48.7695 9.10564C48.7695 11.8111 50.6531 13.6754 53.4385 13.6754C55.0526 13.6754 56.3143 13.0896 57.1134 12.0728C57.1275 12.0545 57.1397 12.038 57.1567 12.0197C57.2048 11.9429 57.233 11.8532 57.233 11.7552C57.233 11.6253 57.1831 11.5072 57.0992 11.4221C57.0804 11.4029 57.0587 11.3873 57.0399 11.3681Z" fill="#263041"/>
<path d="M71.6037 4.54596L70.342 4.54871C70.1347 4.54871 69.9604 4.66952 69.8841 4.84066C69.8746 4.85714 69.8671 4.87544 69.8624 4.89192L67.404 10.97L65.0219 4.91297C65.02 4.90839 65.02 4.90382 65.0172 4.90107L64.9889 4.83426C64.9126 4.67409 64.743 4.56335 64.5498 4.55877H64.5263L63.3343 4.56152H63.1128C62.8886 4.61277 62.7218 4.80497 62.7218 5.03835C62.7218 5.08046 62.7265 5.12164 62.7388 5.161C62.7529 5.19852 62.767 5.23513 62.7821 5.26991C62.7849 5.27174 62.7849 5.27448 62.7849 5.27448C64.9503 10.5581 66.0867 13.5134 66.0914 13.7541C66.0914 13.7724 66.1385 13.9976 65.9576 14.3362C65.8238 14.5842 65.527 14.77 65.2914 14.7581C64.8627 14.7362 64.6261 14.6163 64.2879 14.3701C64.2756 14.3609 64.2643 14.3518 64.2502 14.3426C64.171 14.2914 64.0759 14.2593 63.9713 14.2593C63.8158 14.2593 63.6754 14.3289 63.583 14.4378C63.5802 14.4424 63.5783 14.4451 63.5736 14.4497L63.519 14.5375L63.1138 15.1837L63.0469 15.2899C63.0441 15.2944 63.0422 15.299 63.0393 15.3036C63.0158 15.3613 62.9564 15.4244 62.9564 15.4912C62.9564 15.5745 62.9253 15.6642 62.964 15.7319C62.9668 15.7338 62.9913 15.807 62.9941 15.8088C63.0252 15.8482 63.0544 15.904 63.0921 15.9452C63.0921 15.9479 63.1713 16.0056 63.1741 16.0083C63.5887 16.4971 64.318 16.9885 65.478 17.038C65.8869 17.0554 66.4589 16.9528 67.0242 16.5703C67.5811 16.1923 67.8883 15.5745 68.1333 14.9723L72.0683 5.22323C72.0758 5.2095 72.0805 5.19303 72.0852 5.1793C72.1022 5.13262 72.1088 5.08412 72.1088 5.03378C72.1041 4.76287 71.8808 4.54596 71.6037 4.54596Z" fill="#263041"/>
<path d="M61.0342 13.475H59.3569C59.2184 13.475 59.1053 13.3651 59.1053 13.2306V0.248029C59.1053 0.112575 59.2184 0.00366211 59.3569 0.00366211H61.0342C61.1727 0.00366211 61.2858 0.112575 61.2858 0.248029V13.2297C61.2858 13.3651 61.1736 13.475 61.0342 13.475Z" fill="#263041"/>
<path d="M27.5777 13.475H25.891C25.7515 13.475 25.6394 13.3651 25.6394 13.2306V4.96605C25.6394 4.83151 25.7525 4.72168 25.891 4.72168H27.5777C27.7162 4.72168 27.8293 4.83151 27.8293 4.96605V13.2297C27.8293 13.3651 27.7171 13.475 27.5777 13.475Z" fill="#263041"/>
<path d="M46.7795 13.475H45.0928C44.9533 13.475 44.8412 13.3651 44.8412 13.2306V4.96605C44.8412 4.83151 44.9543 4.72168 45.0928 4.72168H46.7795C46.918 4.72168 47.031 4.83151 47.031 4.96605V13.2297C47.031 13.3651 46.9189 13.475 46.7795 13.475Z" fill="#263041"/>
<path d="M72.8137 13.8383C72.1597 13.8383 71.6273 13.3212 71.6273 12.686C71.6273 12.0509 72.1597 11.5338 72.8137 11.5338C73.4676 11.5338 74 12.0509 74 12.686C74 13.3212 73.4676 13.8383 72.8137 13.8383ZM72.8137 11.7159C72.2634 11.7159 71.8158 12.1506 71.8158 12.6851C71.8158 13.2196 72.2634 13.6543 72.8137 13.6543C73.364 13.6543 73.8116 13.2196 73.8116 12.6851C73.8116 12.1506 73.364 11.7159 72.8137 11.7159Z" fill="#263041"/>
<path d="M73.1416 13.2324L72.9051 12.8865C72.8721 12.8883 72.8467 12.8892 72.8288 12.8892H72.5282V13.2324H72.4198V12.1708H72.8278C72.9644 12.1708 73.07 12.2019 73.1444 12.2632C73.2189 12.3245 73.2565 12.4115 73.2565 12.5241C73.2565 12.6119 73.2349 12.6851 73.1906 12.7446C73.1472 12.8032 73.0841 12.8444 73.0031 12.8673L73.266 13.2334H73.1416V13.2324ZM72.8288 12.795C72.9333 12.795 73.0134 12.7721 73.07 12.7263C73.1265 12.6806 73.1548 12.6137 73.1548 12.5268C73.1548 12.4417 73.1265 12.3767 73.07 12.3328C73.0134 12.2879 72.9333 12.266 72.8288 12.266H72.5282V12.7959H72.8288V12.795Z" fill="#263041"/>
<path d="M73.3564 13.2782H73.1161L72.8805 12.9332C72.8589 12.9341 72.8419 12.935 72.8287 12.935H72.5753V13.2782H72.3727V12.125H72.8278C72.9748 12.125 73.0916 12.1598 73.1745 12.2275C73.2593 12.298 73.3027 12.3968 73.3027 12.5231C73.3027 12.6211 73.2772 12.7034 73.2282 12.7702C73.1896 12.8215 73.1387 12.8618 73.0756 12.8883L73.3564 13.2782ZM73.166 13.1867H73.1755L72.9842 12.9194L73.166 13.1867ZM72.4669 13.1867H72.481V12.8435H72.8287C72.8457 12.8435 72.8702 12.8425 72.9022 12.8407L72.9295 12.8389L72.9305 12.8398L72.9908 12.8224C73.0624 12.8023 73.1161 12.7675 73.1538 12.7162C73.1915 12.6659 73.2103 12.6009 73.2103 12.5231C73.2103 12.4243 73.1792 12.3501 73.1152 12.298C73.0492 12.244 72.9531 12.2165 72.8287 12.2165H72.4678V13.1867H72.4669ZM72.8287 12.8407H72.481V12.2193H72.8287C72.9437 12.2193 73.0351 12.2449 73.0991 12.2961C73.167 12.3492 73.2009 12.427 73.2009 12.5259C73.2009 12.6265 73.167 12.7053 73.1001 12.7611C73.0351 12.8142 72.9437 12.8407 72.8287 12.8407ZM72.5753 12.7492H72.8287C72.9211 12.7492 72.9917 12.73 73.0388 12.6906C73.0841 12.6531 73.1067 12.5991 73.1067 12.5259C73.1067 12.4545 73.085 12.4023 73.0398 12.3666C72.9927 12.3291 72.9211 12.3099 72.8287 12.3099H72.5753V12.7492Z" fill="#263041"/>
</svg>
